<?xml version="1.0" standalone="no"?>
<!DOCTYPE svg PUBLIC "-//W3C//DTD SVG 20010904//EN"
 "http://www.w3.org/TR/2001/REC-SVG-20010904/DTD/svg10.dtd">
<svg version="1.0" xmlns="http://www.w3.org/2000/svg"
 width="500.000000pt" height="500.000000pt" viewBox="0 0 500.000000 500.000000"
 preserveAspectRatio="xMidYMid meet">

<g transform="translate(0.000000,500.000000) scale(0.100000,-0.100000)"
fill="#000000" stroke="none">
<path d="M2393 4835 c-7 -8 -13 -17 -13 -20 0 -3 -5 -11 -10 -18 -18 -21 -89
-136 -111 -180 -12 -23 -30 -54 -41 -69 l-18 -27 -48 21 c-73 32 -124 57 -162
80 -77 46 -247 128 -276 134 -24 5 -33 2 -38 -12 -9 -24 -37 -229 -53 -383
l-6 -64 -146 6 c-80 4 -210 10 -287 13 -140 7 -142 7 -149 -15 -6 -21 20 -126
37 -145 4 -6 8 -16 8 -23 0 -7 9 -32 19 -56 10 -23 33 -74 51 -114 18 -39 29
-76 26 -81 -3 -6 -21 -14 -39 -17 -17 -4 -57 -15 -87 -25 -30 -10 -88 -28
-128 -40 -39 -12 -72 -27 -72 -33 1 -19 53 -83 145 -178 47 -48 85 -91 85 -94
0 -3 14 -20 31 -38 44 -47 51 -70 33 -114 -9 -21 -23 -46 -32 -55 -14 -16 -14
-20 1 -36 15 -16 13 -19 -26 -44 -95 -60 -145 -149 -154 -272 -6 -83 12 -163
51 -230 37 -63 134 -156 162 -156 8 0 14 -4 14 -9 0 -5 12 -12 28 -17 35 -10
32 -9 66 -23 16 -6 61 -14 101 -18 73 -6 73 -6 96 -47 46 -83 281 -346 308
-346 5 0 17 -7 25 -16 22 -21 216 -139 246 -150 14 -4 28 -7 33 -6 4 1 7 -2 7
-8 0 -5 8 -10 18 -10 10 0 22 -4 27 -9 27 -24 262 -86 300 -79 13 3 22 2 20
-3 -3 -4 29 -11 71 -14 157 -15 409 18 554 72 8 3 20 7 27 9 23 4 198 87 214
100 8 8 18 14 21 14 4 0 42 24 85 52 111 74 335 302 316 321 -3 4 -1 7 5 7 7
0 26 25 43 55 30 53 32 55 74 55 24 0 46 4 49 9 3 4 16 6 28 4 28 -5 138 34
138 49 0 6 3 8 6 5 15 -15 129 77 117 96 -3 5 -2 7 4 4 11 -7 41 31 67 86 24
53 39 152 31 217 -13 102 -84 219 -163 265 -27 16 -36 32 -52 86 -11 36 -20
76 -20 88 0 15 30 52 88 110 144 145 237 251 237 274 0 5 -73 33 -162 61 -162
50 -181 62 -155 91 5 6 19 37 32 70 13 33 27 65 31 70 14 20 49 147 42 158 -3
6 -1 7 5 3 7 -4 12 -1 12 9 0 8 6 24 12 35 22 35 -1 55 -63 56 -90 0 -332 -13
-366 -20 l-32 -7 -3 163 -3 163 -32 -3 c-18 -1 -70 -19 -115 -40 -46 -21 -114
-49 -153 -61 -38 -13 -78 -27 -88 -32 -12 -7 -19 -5 -22 3 -2 7 -18 58 -35
113 -17 55 -35 108 -40 117 -6 10 -10 26 -10 36 0 21 -35 62 -54 62 -23 0
-153 -70 -338 -182 l-106 -65 -144 138 c-142 138 -169 154 -195 124z m79 -142
c17 -16 44 -46 59 -67 16 -21 29 -36 29 -31 0 4 7 2 15 -5 17 -14 21 -35 5
-25 -17 10 -11 -1 10 -20 20 -18 21 -18 15 1 -6 17 -5 17 7 3 7 -9 23 -21 36
-28 20 -11 21 -15 10 -29 -10 -12 -10 -14 0 -8 7 4 25 -3 43 -19 26 -21 33
-23 43 -12 6 7 35 28 63 46 29 18 50 37 47 42 -3 5 1 6 8 4 8 -3 23 2 34 12
11 10 26 19 34 21 7 2 25 11 39 21 14 10 50 30 79 45 29 15 51 30 48 34 -2 4
9 7 25 7 26 0 29 -3 29 -32 0 -18 -4 -33 -9 -33 -6 0 -9 -9 -8 -19 0 -11 5
-17 10 -14 5 3 8 0 5 -8 -3 -8 -16 -14 -30 -14 -14 -1 -33 -7 -42 -14 -14 -11
-16 -11 -16 4 0 14 -3 15 -15 5 -8 -7 -15 -20 -14 -29 0 -13 2 -13 8 2 6 17 8
17 20 3 11 -13 11 -19 1 -31 -10 -12 -15 -13 -20 -4 -6 8 -9 8 -14 0 -4 -6 -2
-11 4 -11 6 0 8 -6 4 -12 -4 -7 5 -2 19 11 15 14 27 31 27 39 0 11 3 12 14 3
12 -10 13 -8 9 8 -7 29 11 26 27 -4 12 -22 21 -25 58 -16 2 1 0 6 -3 11 -5 8
-11 8 -20 0 -9 -7 -16 -6 -25 5 -10 12 -10 16 1 19 19 6 48 4 47 -3 -1 -3 2
-14 7 -25 6 -13 3 -21 -8 -28 -10 -5 -17 -14 -17 -19 0 -6 6 -7 13 -3 9 6 9 4
-1 -8 -10 -13 -10 -18 -1 -24 9 -5 7 -11 -7 -22 -16 -13 -17 -14 -1 -9 20 7
23 -13 5 -32 -7 -7 -8 -12 -3 -11 27 6 35 -2 35 -32 0 -21 -3 -28 -8 -20 -10
16 -42 5 -42 -14 0 -8 5 -14 10 -14 6 0 10 -4 10 -9 0 -10 -59 -8 -81 3 -8 4
-7 2 2 -6 11 -9 14 -19 8 -33 -6 -16 -8 -17 -8 -3 -1 9 -7 20 -13 24 -7 4 -10
4 -6 -1 10 -11 -11 -47 -23 -40 -5 4 -9 3 -8 -2 3 -20 -2 -27 -11 -13 -7 10
-10 11 -10 2 0 -7 11 -17 23 -23 24 -11 32 -39 14 -50 -5 -4 -5 -9 2 -13 6 -4
11 -2 11 5 0 7 9 6 25 -5 18 -12 24 -13 23 -4 -2 7 2 12 8 11 7 -1 10 6 7 17
-3 11 -9 20 -14 20 -5 0 -6 -6 -3 -14 9 -23 -11 -27 -29 -5 -9 10 -12 19 -7
19 6 0 10 5 10 11 0 5 -4 7 -10 4 -5 -3 -10 -1 -10 5 0 6 -4 8 -10 5 -15 -9
-12 4 4 21 16 16 30 19 21 5 -3 -5 -1 -13 5 -16 6 -4 9 -1 8 7 -2 8 5 12 17
11 11 -1 14 0 8 3 -15 6 -18 34 -4 34 5 0 11 -6 14 -12 2 -7 8 -9 13 -5 5 4 2
12 -6 17 -17 11 -9 13 14 4 14 -5 13 -10 -6 -38 -12 -17 -18 -28 -13 -24 4 4
15 2 24 -5 14 -11 15 -10 1 7 -13 18 -13 19 0 14 12 -4 15 4 15 41 0 34 4 46
15 47 26 1 30 -6 19 -28 -7 -13 -7 -18 -1 -14 6 3 13 2 17 -4 3 -5 1 -10 -4
-10 -6 0 -11 -7 -11 -16 0 -12 5 -10 19 7 17 21 17 25 4 29 -13 5 -13 7 0 19
9 7 13 20 10 28 -5 12 -3 14 7 8 9 -5 11 -4 6 4 -10 15 -29 3 -22 -15 3 -8 1
-14 -4 -14 -5 0 -9 11 -8 24 1 13 8 23 18 23 24 -1 74 15 81 25 3 5 9 2 12 -7
4 -9 1 -18 -8 -21 -16 -6 -21 -26 -6 -21 5 1 8 -2 8 -8 -1 -5 -8 -9 -16 -8 -9
1 -10 -2 -3 -9 12 -12 4 -40 -9 -32 -5 3 -9 0 -9 -6 0 -7 6 -10 14 -7 8 3 17
1 20 -6 3 -7 5 -6 5 3 -3 38 1 51 14 44 6 -4 9 -4 5 1 -4 4 -3 16 3 26 8 15 6
17 -8 12 -14 -5 -15 -3 -6 7 6 7 9 19 6 26 -5 13 8 22 39 28 7 2 24 8 38 13
14 6 28 10 31 9 3 0 13 5 21 12 18 15 51 5 41 -12 -11 -17 -12 -35 -2 -42 5
-3 9 6 9 20 0 14 5 26 10 26 6 0 10 4 10 10 0 5 -3 9 -7 9 -30 -5 -20 5 22 21
64 25 64 25 63 -10 -1 -25 -3 -28 -16 -17 -13 10 -14 9 -4 -10 17 -30 15 -35
-10 -31 -23 3 -58 -18 -58 -35 0 -5 7 -1 16 7 17 18 44 21 44 7 0 -6 -5 -13
-11 -16 -6 -5 -4 -16 7 -32 16 -25 16 -26 -4 -21 -11 3 -26 1 -33 -4 -11 -8
-10 -9 3 -4 10 3 20 1 24 -5 3 -6 12 -8 19 -5 10 3 12 -4 9 -26 -4 -36 -2 -33
-36 -42 -18 -4 -28 -2 -28 4 0 6 -5 8 -11 4 -8 -5 -6 -10 5 -16 9 -5 14 -13
11 -17 -2 -5 17 -7 43 -5 26 1 47 3 47 4 0 0 27 2 60 4 142 8 241 20 247 30 5
7 8 6 8 -3 0 -11 3 -11 15 -1 9 8 15 8 15 2 0 -7 10 -8 30 -2 23 7 30 5 30 -5
0 -8 -9 -19 -21 -25 -13 -8 -17 -15 -11 -23 19 -25 -7 -74 -56 -107 -26 -18
-40 -30 -30 -27 25 9 28 -3 6 -25 l-20 -20 22 -23 22 -23 -21 -7 c-12 -3 -21
-11 -21 -16 0 -6 -4 -7 -10 -4 -12 8 -12 8 -1 -33 6 -20 6 -30 0 -27 -5 4 -12
-1 -15 -10 -10 -25 -22 1 -16 33 l6 27 7 -25 8 -25 -2 24 c-3 32 -33 37 -33 5
1 -13 -3 -23 -9 -21 -5 1 -9 8 -8 16 1 8 -2 10 -8 4 -6 -6 -4 -21 6 -39 9 -18
15 -23 15 -12 0 14 5 13 27 -8 20 -19 28 -21 35 -12 6 10 8 10 8 0 0 -7 8 -12
18 -10 9 1 31 -2 47 -8 59 -22 130 -44 150 -47 11 -1 25 -5 30 -8 6 -4 18 -5
28 -3 11 1 16 -1 12 -4 -4 -4 -10 -7 -13 -7 -4 -1 -17 -6 -28 -13 -12 -6 -24
-8 -28 -5 -3 3 -6 0 -6 -7 0 -7 -3 -10 -6 -7 -4 4 -1 14 7 24 8 9 9 14 2 10
-6 -4 -14 -1 -16 5 -3 7 -6 -2 -6 -19 -1 -19 -6 -33 -13 -34 -7 0 1 -7 17 -15
30 -14 30 -14 -14 -7 -32 4 -42 3 -37 -5 10 -16 -7 -15 -23 1 -11 10 -13 10
-7 0 7 -13 -5 -17 -33 -13 -8 1 -12 -4 -8 -13 4 -11 0 -13 -15 -9 -14 3 -19 1
-14 -6 3 -6 2 -14 -4 -17 -6 -4 -9 -3 -8 2 3 9 -5 13 -24 13 -9 0 -8 -4 2 -10
11 -7 12 -10 2 -10 -7 0 -20 7 -29 15 -22 22 -37 13 -39 -23 -1 -24 1 -28 11
-19 9 9 10 16 3 25 -6 7 -8 16 -4 20 4 4 14 -2 22 -13 9 -12 11 -21 4 -23 -12
-4 -14 -29 -2 -34 5 -1 5 -14 1 -28 -5 -19 -7 -20 -8 -6 -1 18 -2 18 -21 1
-14 -13 -20 -14 -20 -5 0 7 -3 11 -6 7 -9 -9 -37 22 -39 42 -1 9 -6 25 -12 36
-6 11 -14 38 -18 60 -4 22 -12 46 -17 52 -13 17 -17 103 -6 126 11 22 28 22
28 0 0 -14 2 -14 20 2 14 13 20 14 20 5 0 -7 3 -10 6 -7 4 4 1 13 -5 21 -15
18 -85 60 -76 46 9 -14 -9 -12 -23 2 -10 10 -15 10 -21 -1 -7 -10 -13 -11 -32
-1 -21 10 -22 10 -6 -3 21 -17 23 -52 3 -44 -10 4 -13 1 -9 -8 3 -8 10 -12 17
-8 6 3 3 -3 -6 -14 -10 -11 -18 -27 -18 -36 0 -18 -53 -50 -65 -39 -5 4 -5 2
-2 -4 4 -6 19 -9 34 -6 16 3 24 1 20 -4 -5 -5 -14 -9 -20 -9 -7 -1 -11 -6 -10
-13 2 -7 -3 -12 -11 -12 -8 0 -13 8 -12 18 0 10 -5 16 -14 14 -11 -3 -12 0 -4
8 18 19 -6 61 -31 54 -16 -4 -17 -3 -5 5 12 8 12 13 3 22 -10 10 -9 15 4 24
13 10 13 14 3 20 -9 5 -11 4 -6 -3 4 -7 2 -12 -3 -12 -6 0 -11 5 -11 11 0 6
-8 8 -19 4 -11 -3 -22 -1 -26 5 -3 5 -1 10 4 10 6 0 11 5 11 11 0 6 -7 8 -16
5 -15 -6 -15 -4 -3 11 22 29 39 45 39 38 0 -3 10 -1 21 6 17 9 25 8 38 -6 15
-16 15 -17 -6 -11 -22 7 -41 -8 -23 -19 14 -9 52 14 44 27 -4 6 -1 9 7 6 8 -3
14 -9 14 -14 0 -15 16 -34 28 -34 7 0 6 4 -3 10 -8 5 -15 13 -16 17 -2 16 -23
58 -23 46 -1 -6 -9 -10 -18 -8 -68 16 -69 16 -48 6 11 -5 14 -10 8 -12 -14 -2
-29 -5 -40 -9 -5 -1 -12 -2 -16 -1 -5 1 -6 -2 -3 -7 2 -4 -4 -13 -14 -20 -12
-7 -21 -8 -25 -2 -4 6 0 13 8 16 7 2 14 18 14 35 0 23 -3 27 -9 15 -11 -20
-28 -21 -28 0 0 9 5 12 11 8 7 -4 10 -1 7 6 -2 8 -10 16 -18 18 -7 3 -10 0 -6
-6 3 -6 2 -13 -3 -17 -6 -3 -15 3 -20 14 -14 26 -14 40 0 21 9 -13 10 -13 6 0
-2 8 -10 14 -18 13 -19 -3 -43 47 -28 61 7 8 8 5 3 -9 -9 -25 -1 -18 15 13 9
17 9 22 0 20 -6 -2 -13 5 -14 15 -2 9 2 17 8 18 7 0 3 4 -8 8 -13 5 -20 17
-20 37 -1 21 -5 29 -18 28 -9 -1 -24 -2 -33 -3 -8 0 -12 -6 -9 -11 4 -6 9 -8
13 -6 4 2 14 -1 22 -7 14 -11 19 -22 24 -54 1 -7 5 -16 9 -19 11 -12 8 -21 -9
-28 -8 -3 -13 -2 -9 3 3 5 -1 11 -7 14 -10 4 -10 7 -1 18 9 9 10 16 2 26 -16
19 -24 16 -38 -13 -9 -21 -17 -25 -37 -21 -13 2 -27 0 -30 -5 -3 -4 -2 -8 3
-7 25 4 24 -4 -4 -30 -18 -16 -29 -32 -25 -35 3 -4 0 -4 -9 -1 -15 6 -66 -43
-61 -59 2 -5 -4 -6 -12 -3 -8 3 -20 -1 -27 -9 -7 -8 -18 -13 -26 -10 -7 3 -13
1 -13 -3 0 -5 6 -11 13 -14 6 -2 -1 -4 -17 -4 -19 0 -24 2 -15 8 11 7 11 9 -1
9 -12 0 -12 2 -2 9 11 6 10 10 -4 15 -10 4 -15 4 -11 0 4 -4 -1 -13 -11 -21
-16 -12 -16 -13 0 -7 13 5 16 1 13 -15 -2 -12 0 -19 6 -16 5 4 9 1 9 -4 0 -16
-11 -13 -33 7 -15 12 -18 13 -12 2 8 -13 7 -13 -8 -1 -10 8 -15 16 -13 19 3 2
-1 10 -8 18 -7 7 -16 31 -20 53 -3 23 -11 41 -16 41 -6 0 -10 7 -10 15 0 8 -6
15 -14 15 -9 0 -13 7 -11 20 2 11 0 20 -4 20 -5 0 -11 14 -15 30 -8 41 -7 45
4 45 16 0 12 19 -5 21 -9 1 -12 -3 -9 -9 5 -9 4 -9 -6 0 -7 6 -18 9 -25 7 -6
-3 -12 1 -12 8 -3 50 -8 65 -20 61 -7 -3 -13 -9 -13 -15 0 -5 -5 -6 -10 -3 -6
4 -7 13 -1 23 5 9 11 22 13 27 1 6 9 9 15 9 7 -1 10 2 7 7 -9 15 8 10 28 -8
10 -9 18 -11 18 -6 0 6 -7 14 -15 17 -13 4 -14 10 -5 26 9 17 8 20 -12 19 -13
0 -17 -3 -10 -6 6 -2 12 -10 12 -15 0 -6 -3 -9 -6 -5 -4 3 -13 0 -21 -8 -18
-19 -34 -19 -27 -1 8 20 -26 68 -43 62 -8 -3 -23 -1 -34 5 -15 7 -24 7 -35 -2
-16 -13 -19 -29 -4 -29 6 0 10 7 10 15 0 20 13 19 40 -5 28 -24 31 -25 24 -5
-4 8 -1 15 5 15 6 0 11 -9 11 -21 0 -11 5 -17 10 -14 6 3 10 -1 10 -10 0 -9
-4 -13 -10 -10 -15 9 -12 -4 5 -21 8 -8 12 -21 8 -30 -5 -12 -7 -12 -19 3 -13
17 -14 17 -7 -1 4 -13 3 -17 -5 -12 -7 4 -12 2 -12 -4 0 -7 -7 -9 -17 -6 -10
4 -14 4 -10 0 4 -4 0 -16 -10 -26 -9 -10 -13 -18 -8 -18 4 0 2 -7 -5 -16 -8
-8 -9 -14 -4 -13 19 3 35 -1 30 -9 -2 -4 0 -14 5 -22 7 -11 8 -9 6 8 -2 13 -8
27 -13 30 -5 4 -10 13 -9 20 0 17 35 43 46 36 5 -3 9 0 9 7 0 8 4 8 15 -1 9
-7 13 -15 10 -18 -3 -3 0 -12 7 -19 9 -11 9 -17 -3 -24 -9 -5 -10 -9 -2 -9 18
0 26 19 14 34 -8 10 -7 17 4 26 14 12 16 8 14 -36 -3 -58 -25 -120 -45 -128
-9 -3 -12 -10 -9 -16 3 -5 -1 -10 -10 -10 -9 0 -14 -4 -11 -9 3 -5 -3 -20 -14
-32 -18 -23 -19 -23 -21 -4 -1 11 -1 24 0 28 1 5 -3 6 -8 3 -6 -4 -6 -18 -1
-36 8 -28 4 -35 -21 -32 -4 1 -5 -7 -2 -16 3 -12 -4 -22 -21 -30 -22 -10 -24
-9 -19 6 3 9 2 14 -2 9 -5 -4 -9 -15 -11 -25 -5 -35 -17 -62 -25 -56 -5 3 -9
1 -9 -5 0 -6 -7 -8 -17 -4 -13 5 -15 2 -11 -15 4 -12 1 -25 -4 -29 -7 -3 -8
-1 -4 5 8 14 4 15 -18 6 -9 -3 -14 -10 -11 -14 3 -5 2 -11 -3 -14 -4 -2 -9 7
-10 20 -1 17 2 23 10 18 7 -4 8 -3 4 4 -4 7 -2 12 4 12 6 0 9 4 5 10 -9 15
-44 -21 -38 -39 3 -9 -2 -7 -11 6 -9 12 -13 28 -10 36 3 8 1 18 -5 22 -6 3
-11 17 -11 31 0 14 -4 23 -9 19 -6 -3 -8 4 -6 15 2 11 0 20 -6 20 -5 0 -9 -10
-10 -22 0 -15 -2 -18 -6 -8 -3 8 -14 25 -25 36 -10 12 -18 26 -16 32 2 6 -6
18 -17 27 -11 9 -15 14 -8 11 7 -4 11 1 10 13 0 11 -5 17 -9 15 -4 -3 -8 0 -8
5 0 6 -8 11 -17 12 -10 0 -13 3 -6 5 8 4 0 24 -25 61 -31 47 -38 53 -40 35 -2
-12 -7 -22 -11 -22 -4 0 -8 -10 -8 -22 -1 -13 -7 -24 -13 -26 -5 -2 -10 -16
-11 -30 0 -15 -3 -21 -6 -14 -10 24 -22 11 -17 -18 7 -30 -16 -66 -32 -52 -5
4 -3 0 3 -8 9 -11 8 -19 -1 -32 -7 -10 -17 -14 -22 -10 -4 4 -3 0 4 -9 10 -14
9 -17 -10 -22 -12 -4 -24 -4 -27 -2 -2 3 1 5 7 5 7 0 12 4 12 9 0 5 -9 7 -20
4 -11 -3 -17 -9 -14 -14 10 -17 -3 -9 -22 14 -10 12 -12 17 -5 10 19 -17 41
-5 41 23 0 13 4 24 9 24 6 0 8 -9 6 -21 -4 -17 -2 -19 10 -9 27 22 18 39 -17
35 l-33 -4 25 14 c24 13 24 14 3 12 -13 -1 -23 -5 -23 -10 0 -4 -5 -5 -10 -2
-6 4 -8 15 -5 25 7 22 -29 48 -40 29 -4 -6 -4 -13 -1 -16 3 -4 6 -1 6 7 0 10
3 10 14 0 8 -6 12 -18 9 -27 -4 -10 3 -22 17 -33 12 -9 21 -23 18 -30 -3 -9
-12 -5 -31 14 -15 15 -27 22 -27 16 0 -6 -5 -8 -10 -5 -6 4 -8 11 -5 16 4 5 1
9 -5 9 -6 0 -8 5 -4 13 6 9 4 9 -8 -1 -13 -10 -18 -10 -24 -1 -4 7 -3 9 3 6 6
-4 15 5 21 18 10 21 8 27 -11 40 -28 19 -43 19 -23 0 8 -9 13 -22 10 -30 -9
-23 -27 -18 -21 5 3 11 1 20 -4 20 -5 0 -9 -4 -9 -10 0 -5 -5 -10 -11 -10 -6
0 -9 6 -6 14 3 8 -1 13 -8 12 -8 0 -13 4 -12 9 1 6 5 9 10 7 4 -1 2 7 -5 18
-10 17 -14 18 -16 5 -2 -8 -9 -15 -15 -15 -15 1 -48 25 -42 31 2 3 -5 5 -15 5
-19 0 -19 -1 0 -19 27 -25 26 -63 -2 -72 -13 -4 -30 -6 -38 -5 -10 1 -9 -3 5
-14 17 -13 17 -15 4 -16 -9 0 -21 -6 -27 -13 -8 -10 -6 -13 8 -14 11 -1 24 9
32 25 16 33 49 43 41 12 -3 -11 -13 -20 -22 -20 -14 0 -14 -2 -1 -10 9 -6 11
-10 3 -10 -7 0 -10 -7 -6 -17 4 -11 3 -14 -5 -9 -8 5 -12 -1 -12 -16 0 -18 -2
-20 -10 -8 -5 8 -10 11 -11 5 0 -5 -5 1 -9 15 l-8 25 -1 -25 c-1 -21 -3 -22
-12 -10 -9 13 -10 13 -6 -1 6 -17 -26 -59 -43 -59 -5 0 -7 -6 -4 -14 3 -8 1
-17 -5 -20 -5 -4 -13 3 -16 15 -7 20 21 53 37 43 9 -6 22 15 14 23 -3 3 -12 0
-21 -7 -11 -9 -15 -9 -15 -1 0 7 -5 9 -11 5 -6 -4 -7 -9 -2 -13 5 -3 1 -14 -9
-23 -14 -14 -18 -15 -18 -4 0 8 -4 17 -10 21 -5 3 -5 -7 1 -25 6 -17 16 -27
22 -23 6 4 8 0 4 -9 -4 -11 -1 -15 11 -13 9 2 20 4 25 4 4 1 7 10 7 20 0 21
17 31 38 23 6 -2 12 -10 12 -16 0 -18 -45 -58 -54 -49 -4 5 -14 0 -21 -11 -8
-10 -21 -16 -29 -13 -10 4 -13 1 -10 -8 8 -19 26 -15 41 10 15 24 16 15 4 -18
-7 -19 -16 -24 -36 -22 -16 2 -28 -2 -32 -11 -4 -12 -8 -12 -22 -2 -9 8 -8 3
4 -11 l20 -23 3 22 c3 18 6 20 13 9 6 -10 9 -10 9 -1 0 6 5 12 10 12 22 0 8
-30 -22 -44 -37 -19 -35 -19 -41 -3 -2 6 -3 4 -1 -6 2 -15 0 -16 -12 -6 -8 7
-13 17 -11 23 2 6 -7 18 -20 27 -14 9 -20 19 -15 23 6 3 8 15 5 25 -3 10 0 22
6 25 6 4 11 12 11 19 0 6 -7 2 -16 -9 -15 -19 -15 -18 -11 3 6 25 -17 51 -28
33 -4 -6 -14 -9 -22 -6 -8 3 -11 2 -8 -3 3 -5 1 -12 -5 -16 -5 -3 -10 -12 -10
-18 0 -7 4 -6 10 3 8 13 10 12 10 -2 0 -10 -7 -18 -16 -18 -13 0 -15 8 -12 34
2 20 0 34 -6 33 -6 -1 -10 3 -11 10 0 6 -3 14 -6 18 -4 3 -6 -2 -5 -12 0 -10
-2 -19 -6 -20 -17 -6 -28 -3 -28 8 0 5 5 7 10 4 6 -3 10 3 10 14 0 12 5 21 10
21 6 0 10 5 10 11 0 5 -5 7 -12 3 -8 -5 -9 -2 -5 10 4 11 3 15 -4 11 -14 -9
-49 33 -42 52 5 12 7 12 14 1 6 -9 9 -5 9 12 l-1 25 -19 -24 c-11 -13 -20 -17
-20 -10 0 7 -3 10 -6 6 -3 -3 1 -16 9 -28 9 -11 14 -26 13 -33 -2 -6 -1 -8 1
-3 8 12 22 -3 17 -17 -3 -8 0 -17 6 -21 8 -5 7 -11 -2 -22 -10 -12 -9 -18 6
-29 17 -12 17 -13 -3 -11 -16 1 -21 8 -21 32 -1 22 -3 26 -9 15 -5 -8 -6 -36
-2 -62 4 -26 4 -45 -1 -42 -4 3 -8 1 -8 -4 0 -5 13 -9 29 -8 29 1 29 1 14 29
-8 16 -10 27 -5 23 5 -3 19 4 31 15 l23 21 -5 -28 c-3 -16 -8 -38 -12 -49 -7
-19 -7 -19 7 -2 12 16 16 17 26 4 10 -12 9 -16 -4 -21 -12 -5 -13 -10 -6 -19
6 -7 10 -27 10 -44 -1 -23 -5 -30 -17 -28 -9 2 -19 4 -23 4 -5 1 -8 6 -8 12 0
6 7 9 14 6 10 -4 13 -1 9 8 -3 8 -9 12 -14 9 -5 -3 -9 2 -9 11 0 9 5 13 10 10
6 -3 10 -1 10 4 0 19 -19 12 -32 -11 -14 -27 -19 -48 -10 -47 23 3 24 -4 2
-16 -24 -13 -23 -14 19 -10 33 3 41 1 32 -8 -6 -6 -11 -19 -11 -29 0 -10 -4
-18 -8 -18 -5 0 -16 -6 -27 -13 -14 -11 -15 -16 -5 -22 8 -5 11 -4 7 2 -4 6 0
13 8 17 17 6 22 -29 5 -39 -5 -3 -10 -15 -10 -26 0 -14 -4 -18 -12 -13 -8 5
-7 0 2 -11 9 -11 10 -16 3 -11 -10 5 -13 -3 -13 -29 0 -20 -4 -34 -9 -31 -5 3
-11 -1 -14 -8 -3 -8 -1 -17 6 -20 7 -4 2 -4 -10 -2 -13 2 -26 0 -29 -5 -3 -5
2 -9 10 -9 8 0 17 -4 20 -9 4 -5 -3 -7 -14 -4 -24 6 -34 19 -21 28 6 3 8 12 5
20 -4 8 -9 13 -13 11 -3 -2 -6 9 -7 25 -1 16 3 29 7 29 5 0 9 7 9 16 0 9 5 12
12 8 7 -5 8 -3 3 5 -5 9 -10 10 -18 2 -6 -6 -18 -11 -26 -10 -11 0 -12 2 -3 6
14 5 17 43 3 43 -15 0 -26 -23 -24 -50 l2 -25 -7 25 c-7 21 -9 22 -15 8 -3
-10 -4 -24 -1 -32 3 -8 1 -17 -4 -20 -6 -3 -13 1 -16 10 -3 8 -10 12 -16 9 -5
-3 -10 -1 -10 5 0 7 7 10 15 6 8 -3 15 -1 15 4 0 4 12 22 26 39 16 20 21 31
12 31 -10 0 -9 3 2 11 12 8 10 9 -7 4 -13 -3 -23 -2 -23 2 0 12 -100 7 -112
-5 -6 -6 2 -8 21 -6 16 2 33 -1 37 -7 4 -8 9 -7 15 2 7 11 9 10 9 -3 0 -9 -5
-18 -11 -20 -7 -2 -5 -9 5 -17 14 -12 16 -10 17 15 1 16 1 33 0 38 -1 5 4 4
12 -3 13 -10 13 -16 0 -42 -10 -21 -19 -27 -25 -21 -6 6 -16 8 -22 6 -15 -6
-88 55 -81 67 4 5 0 9 -7 9 -10 0 -9 3 2 9 8 6 19 7 25 3 11 -8 67 -11 60 -4
-3 3 0 10 5 17 6 8 6 12 -3 12 -6 0 -20 4 -29 8 -11 4 -18 3 -18 -5 0 -6 4 -9
8 -6 4 2 14 1 22 -5 12 -7 11 -9 -6 -9 -11 0 -24 3 -28 7 -10 11 -37 12 -30 2
3 -5 -5 -9 -18 -9 -18 0 -20 2 -8 10 13 8 12 10 -4 10 -40 0 -5 12 43 14 28 2
50 7 49 12 -2 5 -7 8 -13 6 -5 -1 -1 4 9 13 21 16 41 11 29 -8 -4 -7 1 -6 10
2 10 8 16 16 13 18 -7 8 -116 11 -116 4 0 -16 14 -20 27 -10 9 8 13 8 13 1 0
-18 -37 -34 -43 -19 -4 9 -8 9 -15 -2 -11 -15 -36 -6 -27 10 3 5 -1 6 -9 3
-10 -4 -16 -1 -16 8 0 8 10 14 23 15 27 1 180 44 187 52 3 3 14 7 25 9 16 2
38 7 53 11 1 1 5 1 8 0 13 -2 24 27 24 61 l0 35 -15 -29 c-8 -15 -12 -33 -8
-39 3 -6 1 -7 -6 -3 -7 5 -9 16 -5 28 4 14 2 18 -5 14 -7 -5 -8 -1 -4 9 5 14
8 14 15 3 7 -9 8 -3 4 17 -4 19 -3 25 2 16 12 -17 19 -4 20 39 l0 35 -14 -30
-14 -30 6 35 c5 32 4 34 -10 16 -8 -10 -13 -31 -11 -47 2 -16 0 -31 -4 -33 -8
-5 -8 70 -1 89 7 18 -11 55 -26 55 -8 0 -14 -5 -14 -11 0 -5 -5 -7 -12 -3 -9
6 -9 9 0 12 14 4 16 52 3 52 -6 0 -8 -9 -6 -20 2 -12 0 -18 -6 -15 -5 4 -7 10
-4 15 3 4 -2 13 -11 20 -8 7 -13 19 -10 27 3 7 1 13 -4 13 -5 0 -7 9 -5 20 2
11 0 20 -6 20 -5 0 -9 6 -9 14 0 8 -6 17 -12 20 -7 3 15 3 50 0 48 -5 62 -3
62 8 0 9 3 9 8 2 11 -17 387 -34 413 -18 5 3 9 20 9 37 0 18 9 110 21 205 16
121 26 172 35 172 7 0 16 -5 19 -11 4 -6 13 -8 20 -5 8 3 15 1 17 -3 5 -14
220 -111 231 -104 5 3 7 2 4 -4 -6 -9 38 -33 151 -86 14 -7 26 -7 32 -1 5 5
44 68 87 139 88 146 107 175 110 175 2 0 17 -12 35 -27z m743 -233 c3 -5 1
-10 -4 -10 -6 0 -11 5 -11 10 0 6 2 10 4 10 3 0 8 -4 11 -10z m415 -100 c0 -5
-2 -10 -4 -10 -3 0 -8 5 -11 10 -3 6 -1 10 4 10 6 0 11 -4 11 -10z m-290 -146
c0 -8 -19 -13 -24 -6 -3 5 1 9 9 9 8 0 15 -2 15 -3z m-1357 -129 c-7 -21 -12
-19 -10 4 0 11 5 18 9 15 4 -3 5 -11 1 -19z m-703 -65 c0 -5 -2 -10 -4 -10 -3
0 -8 5 -11 10 -3 6 -1 10 4 10 6 0 11 -4 11 -10z m-9 -28 c-7 -2 -18 1 -23 6
-8 8 -4 9 13 5 13 -4 18 -8 10 -11z m2700 5 c-7 -7 -14 -8 -21 -1 -6 6 -2 10
12 11 16 2 18 -1 9 -10z m-1091 -120 l56 -112 41 0 c23 -1 40 2 38 6 -5 6 41
50 51 48 3 -1 17 8 30 20 13 12 27 21 30 21 14 0 83 64 77 73 -3 6 -1 7 5 3 7
-4 22 4 36 18 13 14 26 26 29 26 3 0 15 -16 27 -35 12 -19 27 -32 32 -29 6 4
8 2 5 -3 -6 -9 62 -107 86 -124 5 -3 9 -10 10 -15 0 -5 15 -31 32 -59 18 -27
46 -78 64 -113 17 -35 37 -69 43 -76 17 -18 65 -1 74 26 3 11 14 28 24 38 19
19 19 18 35 -12 8 -17 15 -38 15 -48 0 -9 4 -20 8 -26 5 -5 15 -36 22 -69 7
-33 21 -89 31 -125 19 -67 35 -218 32 -305 -7 -218 -71 -427 -177 -579 -23
-32 -45 -66 -51 -74 -18 -29 -192 -202 -203 -202 -6 0 -17 -6 -24 -12 -44 -41
-197 -127 -263 -148 -22 -7 -45 -17 -51 -22 -7 -5 -56 -20 -110 -34 -81 -21
-128 -26 -259 -29 -161 -3 -318 7 -365 24 -14 5 -45 14 -70 22 -25 7 -49 16
-55 21 -5 4 -16 8 -25 8 -8 0 -49 18 -91 39 -214 109 -370 248 -497 439 -96
146 -137 251 -167 432 -23 137 -14 308 25 475 7 28 13 55 14 60 1 6 4 15 7 20
13 21 40 115 36 122 -2 5 4 15 14 25 16 15 18 15 29 -12 19 -45 51 -69 79 -59
15 6 21 14 17 25 -3 8 -2 12 4 9 5 -3 22 20 37 52 15 32 33 62 40 66 7 4 13
12 13 17 0 5 18 35 40 66 22 31 37 62 33 68 -3 6 -3 8 2 4 9 -9 46 31 67 71 7
14 22 34 33 43 19 16 22 15 70 -31 122 -116 185 -150 206 -111 21 38 69 152
69 165 0 24 19 26 31 3 29 -57 73 -117 81 -112 5 3 7 2 6 -3 -5 -18 14 -53 25
-47 7 4 9 4 5 -1 -9 -9 24 -58 69 -103 34 -33 34 -34 61 -16 33 21 122 105
122 115 0 4 30 37 66 73 39 40 62 70 58 77 -4 8 -3 9 4 5 7 -4 16 3 23 18 6
13 17 22 23 19 6 -3 36 -55 66 -116z m-1485 83 c3 -5 1 -10 -4 -10 -6 0 -11 5
-11 10 0 6 2 10 4 10 3 0 8 -4 11 -10z m376 -7 c8 -9 9 -14 2 -10 -6 4 -13 1
-16 -5 -2 -7 -8 -10 -12 -6 -7 7 0 38 8 38 3 0 11 -8 18 -17z m2032 -96 c4 3
7 -2 7 -12 0 -14 -3 -15 -15 -5 -11 9 -18 10 -28 1 -15 -12 -27 -5 -27 15 0 8
6 11 17 7 12 -5 14 -3 8 8 -5 8 -1 7 12 -4 11 -9 23 -14 26 -10z m-279 -28
c-3 -5 -10 -7 -15 -3 -5 3 -7 10 -3 15 3 5 10 7 15 3 5 -3 7 -10 3 -15z
m-1896 -111 c-2 -6 -15 -13 -29 -14 l-24 -4 25 15 c31 18 33 18 28 3z m-33
-31 c16 -5 15 -5 -4 -4 -14 1 -26 9 -28 17 -3 10 -2 11 4 4 4 -7 17 -14 28
-17z m2496 -89 c-10 -11 -11 -9 -5 6 6 15 4 17 -6 11 -9 -6 -11 -4 -5 4 5 9
10 10 18 2 8 -8 7 -14 -2 -23z m-34 -4 c-3 -3 -12 -4 -19 -1 -8 3 -5 6 6 6 11
1 17 -2 13 -5z m23 -18 c0 -2 -13 -6 -30 -8 -16 -3 -30 -1 -30 4 0 4 14 8 30
8 17 0 30 -2 30 -4z m-97 -37 c4 -16 3 -18 -9 -8 -7 6 -11 15 -8 20 8 13 11
11 17 -12z m52 -1 c5 4 5 1 1 -6 -5 -9 -12 -9 -27 -2 -10 6 -19 13 -19 16 0 2
8 0 19 -5 10 -6 22 -7 26 -3z m-2758 -30 c-3 -8 -6 -5 -6 6 -1 11 2 17 5 13 3
-3 4 -12 1 -19z m2604 -21 c-6 -8 -8 -17 -5 -20 4 -3 -1 -14 -10 -23 -20 -19
-21 -18 -30 18 -5 23 -3 26 14 23 11 -2 22 0 25 6 4 5 9 9 12 9 3 0 0 -6 -6
-13z m-2606 -16 c-3 -6 -11 -11 -16 -11 -5 0 -4 6 3 14 14 16 24 13 13 -3z
m2638 -53 c8 -5 8 -8 1 -8 -5 0 -19 7 -30 16 -10 8 -13 13 -6 9 8 -4 12 3 13
22 l2 28 4 -30 c3 -16 10 -33 16 -37z m15 37 c-3 -3 -9 2 -12 12 -6 14 -5 15
5 6 7 -7 10 -15 7 -18z m-2641 -11 c-3 -3 -12 -4 -19 -1 -8 3 -5 6 6 6 11 1
17 -2 13 -5z m11 -49 c-3 -3 -9 2 -12 12 -6 14 -5 15 5 6 7 -7 10 -15 7 -18z
m2620 -8 c7 3 12 -3 12 -14 0 -15 -2 -16 -10 -3 -8 12 -10 10 -11 -10 -2 -24
-2 -24 -6 -2 -5 23 -19 30 -25 12 -2 -6 -9 -1 -16 11 -8 12 -9 18 -3 15 5 -4
13 -1 17 5 5 9 10 8 18 -3 6 -8 17 -13 24 -11z m-2593 -16 c3 -5 2 -12 -3 -15
-5 -3 -9 1 -9 9 0 17 3 19 12 6z m2595 -45 c0 -2 -9 -6 -20 -9 -11 -3 -18 -1
-14 4 5 9 34 13 34 5z m-2599 -20 c-4 -6 -11 -18 -14 -26 -3 -8 -5 -3 -4 11 1
14 7 26 14 26 8 0 9 -5 4 -11z m2589 -26 c-6 -11 -13 -20 -15 -20 -2 0 -3 9
-2 20 1 11 7 20 14 20 11 0 11 -5 3 -20z m-2608 -144 c-3 -6 -9 -31 -12 -56
-5 -45 -5 -45 -47 -48 -61 -4 -117 -61 -126 -127 -9 -61 -1 -72 30 -43 31 29
53 29 81 -2 13 -15 20 -18 17 -9 -7 20 10 35 21 18 4 -8 3 -9 -4 -5 -19 12
-14 -9 13 -48 36 -53 67 -117 61 -124 -3 -3 0 -15 8 -26 7 -12 16 -35 20 -53
l7 -31 -38 5 c-21 3 -42 9 -48 13 -5 4 -18 6 -27 5 -10 -2 -18 1 -18 6 0 5 -7
9 -16 9 -30 0 -102 59 -140 115 -32 48 -45 98 -45 179 0 64 4 83 27 127 27 49
53 69 119 96 38 15 127 14 117 -1z m2767 -10 c53 -34 86 -77 106 -136 14 -44
15 -60 5 -118 -12 -71 -57 -167 -93 -200 -32 -28 -114 -72 -137 -72 -10 0 -21
-4 -24 -8 -5 -8 -76 -16 -76 -8 0 3 5 17 11 33 6 15 12 35 14 43 7 45 19 81
31 91 8 6 11 15 8 20 -3 5 -1 9 5 9 5 0 12 8 15 18 6 17 58 77 87 100 14 11
22 8 48 -14 18 -15 35 -24 38 -20 10 10 -16 98 -35 119 -26 29 -67 47 -107 47
-31 0 -35 3 -36 28 0 15 -2 36 -5 47 -7 37 3 45 56 45 36 0 61 -7 89 -24z"/>
<path d="M2481 4613 c1 -5 0 -11 -1 -15 -1 -5 -3 -14 -4 -20 -1 -7 -8 -12 -16
-10 -11 2 -10 -1 2 -11 10 -8 15 -16 13 -19 -10 -10 30 -2 58 12 27 13 38 32
15 28 -7 -2 -12 3 -13 11 0 8 -6 16 -13 19 -7 2 -11 -1 -10 -6 2 -6 -1 -9 -7
-8 -5 0 -9 7 -7 14 2 6 -2 12 -8 12 -5 0 -9 -3 -9 -7z m29 -58 c-12 -15 -30
-12 -30 6 0 5 10 9 21 9 18 0 19 -2 9 -15z"/>
<path d="M2550 4546 c0 -3 9 -10 20 -16 11 -6 20 -8 20 -6 0 3 -9 10 -20 16
-11 6 -20 8 -20 6z"/>
<path d="M2512 4527 c-8 -10 -6 -16 9 -25 26 -16 18 -28 -18 -27 -23 0 -27 4
-25 23 2 12 0 22 -5 23 -4 0 -16 2 -25 4 -13 2 -18 -3 -18 -21 0 -15 4 -23 10
-19 6 4 7 11 4 17 -4 6 -1 9 7 6 17 -6 19 -30 4 -41 -6 -5 -4 -7 5 -6 31 3 39
-1 34 -18 -5 -15 -4 -16 5 -3 9 12 13 12 19 2 11 -17 42 -4 41 17 -2 25 -17
68 -18 51 -1 -13 -2 -13 -11 0 -6 9 -5 17 3 22 8 5 9 8 1 8 -6 0 -16 -6 -22
-13z m30 -79 c-7 -7 -10 -5 -7 8 5 29 6 30 12 16 3 -8 1 -18 -5 -24z"/>
<path d="M1800 4500 c0 -11 6 -20 13 -20 8 0 7 -3 -3 -10 -20 -13 -10 -18 20
-9 14 4 19 7 12 8 -7 1 -10 6 -7 11 3 6 -1 10 -9 10 -9 0 -16 4 -16 10 0 5 8
7 18 4 14 -5 15 -4 2 5 -22 16 -30 13 -30 -9z"/>
<path d="M2572 4498 c-5 -8 -6 -22 -1 -33 7 -17 8 -17 8 8 1 28 16 37 24 15 2
-7 8 -9 13 -5 5 4 2 12 -6 17 -20 13 -26 12 -38 -2z"/>
<path d="M3091 4488 c-16 -26 -11 -30 11 -7 10 10 14 20 10 23 -5 3 -14 -4
-21 -16z"/>
<path d="M2960 4490 c-11 -8 -8 -9 13 -4 22 5 27 3 27 -12 0 -13 3 -15 11 -7
25 25 -19 44 -51 23z"/>
<path d="M1859 4473 c12 -23 0 -40 -19 -28 -6 3 -7 -1 -4 -10 6 -14 9 -14 23
-2 9 8 23 12 31 10 13 -5 13 -4 0 8 -8 8 -21 21 -29 29 -12 13 -12 12 -2 -7z"/>
<path d="M3130 4480 c-8 -5 -10 -10 -5 -10 6 0 17 5 25 10 8 5 11 10 5 10 -5
0 -17 -5 -25 -10z"/>
<path d="M2640 4461 c0 -6 5 -13 10 -16 6 -3 10 1 10 9 0 9 -4 16 -10 16 -5 0
-10 -4 -10 -9z"/>
<path d="M2923 4463 c-16 -6 -17 -43 -2 -43 5 0 8 4 4 9 -3 5 2 17 11 25 15
16 11 19 -13 9z"/>
<path d="M2956 4444 c-4 -14 -5 -28 -3 -31 3 -2 8 8 11 23 4 14 5 28 3 31 -3
2 -8 -8 -11 -23z"/>
<path d="M1916 4446 c3 -9 10 -16 16 -16 5 0 6 -5 3 -10 -5 -8 -11 -7 -21 1
-11 9 -14 8 -14 -5 0 -10 -5 -14 -10 -11 -6 4 -8 11 -5 16 3 5 -1 6 -9 3 -14
-5 -14 -8 -1 -21 8 -8 20 -11 26 -7 8 4 9 -1 4 -16 -6 -18 -4 -22 8 -17 9 3
18 1 21 -6 3 -8 8 -7 15 4 7 10 19 15 35 12 13 -3 27 0 30 6 4 5 14 7 24 4 9
-3 14 -3 10 1 -3 4 -13 9 -22 10 -9 1 -23 11 -32 22 -8 10 -13 13 -9 7 8 -17
-5 -16 -27 1 -10 7 -14 17 -10 22 4 5 3 6 -2 2 -5 -4 -15 -3 -23 4 -11 8 -12
7 -7 -6z m44 -37 c0 -5 -5 -7 -12 -3 -7 5 -9 2 -6 -8 4 -8 0 -15 -8 -15 -7 0
-16 7 -18 14 -3 8 -2 11 3 8 5 -3 12 -1 16 5 8 13 25 13 25 -1z m40 -21 c0 -4
-4 -8 -9 -8 -6 0 -12 4 -15 8 -3 5 1 9 9 9 8 0 15 -4 15 -9z"/>
<path d="M2413 4445 c0 -8 4 -12 9 -9 4 3 8 9 8 15 0 5 -4 9 -8 9 -5 0 -9 -7
-9 -15z"/>
<path d="M3015 4448 c-8 -24 0 -76 10 -71 27 15 43 36 38 49 -6 16 8 19 23 4
7 -7 11 -6 11 3 0 16 -27 19 -44 4 -9 -7 -13 -5 -13 7 0 19 -19 22 -25 4z m25
-29 c0 -5 6 -7 13 -3 8 5 8 2 -2 -9 -7 -9 -19 -17 -25 -17 -6 0 -4 5 4 10 10
6 11 10 3 10 -7 0 -13 5 -13 10 0 6 5 10 10 10 6 0 10 -5 10 -11z"/>
<path d="M3125 4450 c-3 -5 -1 -10 4 -10 6 0 11 5 11 10 0 6 -2 10 -4 10 -3 0
-8 -4 -11 -10z"/>
<path d="M2471 4413 c11 -21 28 -43 36 -50 10 -7 13 -19 9 -30 -7 -17 -8 -17
-17 0 -6 9 -15 17 -21 17 -6 0 1 -11 16 -25 32 -29 38 -31 29 -8 -4 11 -3 14
5 9 8 -5 8 1 1 24 -6 16 -15 27 -20 24 -5 -3 -9 0 -9 5 0 6 3 11 8 12 4 0 15
2 24 4 12 2 15 -2 11 -13 -4 -10 -2 -13 5 -8 7 4 12 14 12 23 0 12 -7 14 -30
10 -20 -5 -30 -3 -30 6 0 8 -4 7 -10 -3 -8 -12 -10 -9 -10 13 0 17 -5 27 -15
27 -12 0 -11 -7 6 -37z"/>
<path d="M2617 4439 c7 -7 15 -10 18 -7 3 3 -2 9 -12 12 -14 6 -15 5 -6 -5z"/>
<path d="M2875 4440 c-3 -5 -2 -10 3 -10 5 0 9 -7 9 -15 0 -8 -4 -15 -9 -15
-4 0 -8 4 -8 9 0 11 -26 9 -37 -3 -4 -4 -3 -6 2 -5 23 7 54 -12 49 -29 -5 -13
-4 -14 4 -3 6 9 12 10 16 3 8 -13 -28 -35 -38 -24 -4 3 -4 -1 -1 -10 4 -10 16
-20 27 -24 22 -7 16 -19 -10 -19 -11 0 -16 -7 -14 -17 2 -10 -2 -18 -8 -18 -5
0 -10 8 -11 18 0 13 -2 14 -6 2 -3 -8 -10 -18 -16 -21 -5 -4 -5 -9 2 -13 6 -4
11 -1 11 6 0 9 3 9 10 -2 9 -13 11 -13 20 0 5 8 8 21 5 28 -5 15 7 16 22 1 7
-7 15 -6 26 5 18 18 32 21 22 6 -4 -6 -3 -10 2 -9 20 3 34 -2 28 -11 -4 -6 -1
-9 6 -8 6 2 14 -3 16 -9 3 -7 -2 -13 -10 -13 -17 0 -30 -27 -21 -42 4 -6 1
-14 -6 -18 -9 -5 -9 -9 -1 -14 6 -4 11 -2 11 4 0 7 6 8 19 0 32 -17 34 -12 6
14 -24 22 -27 55 -4 41 5 -4 9 -1 9 5 0 6 5 8 10 5 6 -3 10 1 10 9 0 9 4 16
10 16 5 0 6 -8 3 -17 -7 -17 -6 -17 11 0 10 9 19 23 20 30 7 31 20 47 40 48
15 1 17 2 4 6 -9 2 -31 -3 -48 -12 -17 -9 -34 -14 -39 -11 -4 3 -8 -1 -8 -9 0
-8 3 -14 6 -13 19 2 24 -3 12 -11 -10 -6 -26 -1 -52 16 -21 14 -42 23 -46 20
-5 -3 -20 4 -33 15 -16 13 -19 18 -8 14 11 -3 17 0 15 7 -1 7 6 11 16 11 18
-2 20 16 2 19 -20 2 -34 21 -21 29 8 6 8 8 -1 8 -7 0 -10 6 -7 14 6 17 -12 31
-21 16z m186 -143 c-6 -8 -8 -16 -5 -19 3 -3 1 -8 -4 -12 -13 -8 -11 28 2 36
17 12 20 9 7 -5z"/>
<path d="M2362 4416 c-25 -18 -29 -25 -17 -29 8 -4 14 -2 12 2 -1 5 3 9 8 9 6
0 9 -3 8 -8 -1 -4 8 -7 20 -6 12 1 23 9 25 19 2 10 -2 16 -10 15 -7 -2 -12 3
-10 10 3 16 1 16 -36 -12z m38 -11 c7 -8 8 -15 2 -15 -5 0 -15 7 -22 15 -7 8
-8 15 -2 15 5 0 15 -7 22 -15z"/>
<path d="M2975 4420 c3 -5 8 -10 11 -10 2 0 4 5 4 10 0 6 -5 10 -11 10 -5 0
-7 -4 -4 -10z"/>
<path d="M3495 4420 c-3 -5 -1 -10 4 -10 6 0 11 5 11 10 0 6 -2 10 -4 10 -3 0
-8 -4 -11 -10z"/>
<path d="M3560 4426 c0 -2 7 -6 15 -10 8 -3 15 -1 15 4 0 6 -7 10 -15 10 -8 0
-15 -2 -15 -4z"/>
<path d="M2760 4409 c0 -5 5 -7 10 -4 6 3 10 8 10 11 0 2 -4 4 -10 4 -5 0 -10
-5 -10 -11z"/>
<path d="M3115 4410 c-3 -5 -12 -7 -19 -4 -7 3 -19 -2 -26 -11 -8 -10 -9 -15
-1 -15 6 0 11 5 11 10 0 6 5 10 11 10 5 0 8 -4 4 -9 -3 -5 0 -13 6 -17 8 -4 9
-3 5 4 -4 7 -3 12 2 12 6 0 12 7 16 15 6 17 0 20 -9 5z"/>
<path d="M3451 4407 c-8 -10 -7 -14 4 -14 8 0 15 6 15 14 0 7 -2 13 -4 13 -2
0 -9 -6 -15 -13z"/>
<path d="M1828 4393 c6 -2 12 -9 12 -14 0 -6 -4 -7 -10 -4 -5 3 -10 1 -10 -4
0 -15 15 -14 29 3 9 11 8 15 -5 20 -8 3 -19 6 -22 5 -4 0 -1 -3 6 -6z"/>
<path d="M2590 4390 c8 -5 10 -10 4 -10 -18 0 -56 -38 -45 -44 5 -3 12 0 15 6
5 11 7 11 12 0 6 -13 24 -7 24 9 0 6 -4 7 -10 4 -5 -3 -10 -2 -10 4 0 5 9 13
20 16 27 8 25 20 -2 22 -18 2 -20 0 -8 -7z"/>
<path d="M1790 4381 c0 -6 4 -13 10 -16 6 -3 7 1 4 9 -7 18 -14 21 -14 7z"/>
<path d="M3415 4382 c-20 -14 -15 -30 8 -24 12 3 16 7 9 10 -7 2 -10 8 -6 13
6 11 3 11 -11 1z"/>
<path d="M2430 4376 c0 -4 7 -14 15 -22 8 -9 15 -11 15 -6 0 5 -7 15 -15 22
-8 7 -15 9 -15 6z"/>
<path d="M2669 4356 c-20 -18 -23 -24 -13 -34 8 -7 15 -8 19 -2 3 6 1 10 -6
10 -8 0 -8 4 1 15 17 20 31 19 23 -2 -4 -11 -3 -14 3 -8 5 5 13 12 17 16 4 3
2 11 -5 17 -10 8 -20 5 -39 -12z"/>
<path d="M2845 4369 c-4 -6 -4 -13 -1 -16 3 -4 6 -1 6 6 0 7 5 9 10 6 6 -3 10
-1 10 4 0 14 -17 14 -25 0z"/>
<path d="M3120 4375 c0 -7 30 -13 34 -7 3 4 -4 9 -15 9 -10 1 -19 0 -19 -2z"/>
<path d="M3451 4364 c0 -11 3 -14 6 -6 3 7 2 16 -1 19 -3 4 -6 -2 -5 -13z"/>
<path d="M3488 4359 c9 -10 17 -19 17 -19 0 0 1 8 2 18 1 11 -6 18 -17 19 -17
2 -18 0 -2 -18z"/>
<path d="M1960 4349 c0 -13 -5 -19 -13 -16 -8 3 -14 -5 -15 -21 -2 -23 -42
-75 -42 -54 0 4 -15 12 -32 18 -19 5 -32 15 -30 22 1 8 -2 11 -8 7 -8 -5 -7
-11 1 -21 9 -11 8 -14 -4 -14 -9 0 -19 -4 -22 -10 -4 -6 1 -7 12 -3 14 5 16 4
8 -8 -5 -8 -2 -7 7 4 22 23 45 13 26 -11 -11 -15 -11 -15 2 -6 8 5 22 10 30 9
8 -1 23 3 33 7 10 5 17 5 17 -2 0 -5 -4 -10 -10 -10 -5 0 -7 -6 -4 -13 3 -8
-2 -19 -10 -26 -7 -6 -12 -21 -9 -31 6 -23 8 -24 34 -10 15 9 21 7 25 -5 10
-24 21 -17 20 13 -1 15 4 35 11 46 12 19 7 43 -14 64 -17 18 -17 47 2 65 13
13 13 16 0 21 -10 4 -15 -1 -15 -15z m14 -91 c14 -19 14 -23 0 -32 -10 -8 -13
-21 -10 -39 3 -16 1 -25 -5 -22 -5 4 -7 10 -4 15 6 9 -25 23 -33 15 -3 -3 0
-5 6 -5 7 0 12 -5 12 -11 0 -5 -4 -7 -10 -4 -5 3 -10 0 -10 -7 0 -10 -3 -9
-10 2 -6 10 -4 20 6 31 7 8 14 21 14 28 0 6 7 14 15 17 12 5 13 10 4 20 -8 9
-8 14 -1 14 6 0 18 -10 26 -22z"/>
<path d="M2030 4360 c0 -13 11 -13 30 0 12 8 11 10 -7 10 -13 0 -23 -4 -23
-10z"/>
<path d="M2358 4360 c6 -8 12 -22 12 -31 0 -20 26 -33 36 -18 3 6 1 16 -6 22
-10 10 -11 8 -6 -8 6 -15 4 -17 -5 -8 -14 14 -2 36 15 30 7 -3 13 1 13 8 0 15
-18 15 -29 1 -4 -6 -14 -4 -25 4 -15 12 -16 12 -5 0z"/>
<path d="M3071 4354 c0 -11 3 -14 6 -6 3 7 2 16 -1 19 -3 4 -6 -2 -5 -13z"/>
<path d="M2110 4350 c0 -5 7 -10 16 -10 8 0 12 5 9 10 -3 6 -10 10 -16 10 -5
0 -9 -4 -9 -10z"/>
<path d="M2320 4350 c13 -8 11 -11 -7 -16 -13 -4 -23 -11 -23 -16 0 -5 5 -6
10 -3 6 3 10 0 10 -8 0 -24 29 -28 40 -7 8 16 8 18 -5 14 -8 -3 -12 -11 -8
-17 3 -5 1 -7 -5 -4 -11 8 -11 25 1 43 7 13 -1 24 -17 24 -6 0 -4 -5 4 -10z"/>
<path d="M3110 4350 c-9 -6 -10 -10 -3 -10 6 0 15 5 18 10 8 12 4 12 -15 0z"/>
<path d="M3146 4342 c-3 -5 1 -9 9 -9 8 0 12 4 9 9 -3 4 -7 8 -9 8 -2 0 -6 -4
-9 -8z"/>
<path d="M3555 4341 c-3 -5 -1 -12 5 -16 5 -3 10 1 10 9 0 18 -6 21 -15 7z"/>
<path d="M2066 4313 c-6 -14 -5 -15 5 -6 7 7 10 15 7 18 -3 3 -9 -2 -12 -12z"/>
<path d="M2093 4317 c-2 -4 0 -14 7 -22 8 -9 8 -15 0 -20 -6 -3 -7 -11 -3 -18
11 -19 21 26 10 48 -9 17 -8 18 4 9 11 -9 17 -9 27 2 11 12 8 13 -13 12 -15
-2 -29 -6 -32 -11z"/>
<path d="M2461 4323 c0 -5 13 -18 28 -30 20 -16 31 -19 42 -11 11 8 11 9 -3 4
-11 -3 -24 4 -37 19 -19 25 -32 32 -30 18z"/>
<path d="M3280 4315 c0 -8 4 -15 10 -15 5 0 7 7 4 15 -4 8 -8 15 -10 15 -2 0
-4 -7 -4 -15z"/>
<path d="M3420 4326 c0 -2 12 -12 28 -21 l27 -18 -19 21 c-17 20 -36 29 -36
18z"/>
<path d="M3500 4320 c0 -5 -8 -7 -17 -4 -17 5 -17 5 0 -6 10 -7 23 -8 33 -2
15 8 15 10 0 15 -9 4 -16 2 -16 -3z"/>
<path d="M2165 4309 c-4 -6 -5 -12 -2 -15 2 -3 7 2 10 11 7 17 1 20 -8 4z"/>
<path d="M2186 4303 c-6 -14 -5 -15 5 -6 7 7 10 15 7 18 -3 3 -9 -2 -12 -12z"/>
<path d="M3375 4310 c3 -5 8 -10 11 -10 2 0 4 5 4 10 0 6 -5 10 -11 10 -5 0
-7 -4 -4 -10z"/>
<path d="M2577 4299 c7 -7 15 -10 18 -7 3 3 -2 9 -12 12 -14 6 -15 5 -6 -5z"/>
<path d="M2410 4290 c-9 -6 -10 -10 -3 -10 6 0 15 5 18 10 8 12 4 12 -15 0z"/>
<path d="M2640 4294 c0 -1 8 -8 17 -15 9 -8 14 -9 10 -2 -4 6 -1 13 5 16 7 3
3 4 -9 4 -13 -1 -23 -2 -23 -3z"/>
<path d="M3436 4289 c5 -7 9 -18 9 -24 0 -5 9 -10 19 -10 11 0 21 -6 24 -13 7
-21 18 -13 20 15 2 21 -1 24 -10 15 -8 -8 -18 -6 -41 10 -17 12 -27 15 -21 7z"/>
<path d="M2383 4277 c6 -15 3 -17 -16 -11 -25 8 -22 2 10 -15 20 -10 21 -9 18
10 -3 12 -7 24 -11 28 -4 3 -4 -2 -1 -12z"/>
<path d="M3527 4279 c7 -7 15 -10 18 -7 3 3 -2 9 -12 12 -14 6 -15 5 -6 -5z"/>
<path d="M2162 4254 c-1 -12 3 -26 8 -29 6 -4 7 1 3 10 -3 10 0 20 6 25 10 5
10 8 -1 12 -9 4 -14 -2 -16 -18z"/>
<path d="M2309 4275 c-1 -3 -2 -9 -3 -14 0 -5 -4 -13 -8 -17 -13 -13 -9 -42 7
-48 13 -4 14 -2 5 14 -6 11 -7 26 -3 33 9 14 13 37 7 37 -2 0 -5 -2 -5 -5z"/>
<path d="M2432 4249 c1 -16 7 -25 14 -22 6 2 14 -3 18 -13 4 -12 2 -15 -9 -11
-8 4 -17 1 -21 -5 -4 -7 -3 -8 4 -4 7 4 12 3 12 -3 0 -6 7 -7 17 -4 12 5 14 3
8 -7 -5 -8 -4 -11 3 -6 7 4 8 15 2 30 -6 16 -5 28 3 37 10 11 9 11 -4 1 -13
-10 -19 -9 -30 5 -9 11 -10 14 -1 9 7 -4 12 -2 12 7 0 7 -7 14 -15 14 -10 0
-14 -9 -13 -28z"/>
<path d="M2545 4266 c-14 -10 -25 -11 -37 -5 -14 7 -16 6 -12 -5 3 -9 11 -14
17 -13 7 1 11 -4 9 -11 -1 -8 2 -11 8 -7 5 3 10 12 10 20 0 7 8 12 18 10 9 -2
19 -4 21 -4 3 -1 -3 -7 -13 -14 -16 -12 -16 -13 2 -13 12 0 18 6 17 16 -2 8
-4 21 -4 28 -1 16 -13 15 -36 -2z"/>
<path d="M2635 4270 c6 -10 2 -11 -18 -6 -21 5 -25 3 -21 -8 3 -8 13 -17 22
-21 9 -3 13 -3 9 1 -4 4 1 12 10 19 13 9 13 14 3 20 -9 6 -11 4 -5 -5z"/>
<path d="M3390 4270 c0 -5 5 -10 11 -10 5 0 7 5 4 10 -3 6 -8 10 -11 10 -2 0
-4 -4 -4 -10z"/>
<path d="M2125 4261 c-3 -5 0 -13 6 -17 7 -4 9 -3 5 4 -3 5 0 13 6 15 9 4 10
6 1 6 -6 1 -14 -3 -18 -8z"/>
<path d="M3422 4250 c0 -14 2 -19 5 -12 2 6 2 18 0 25 -3 6 -5 1 -5 -13z"/>
<path d="M3566 4261 c-3 -5 1 -14 9 -21 13 -11 14 -10 8 5 -5 15 -3 17 11 12
10 -4 15 -3 11 3 -8 12 -32 13 -39 1z"/>
<path d="M2710 4250 c-11 -7 -11 -10 -2 -10 7 0 10 -4 7 -10 -4 -6 1 -7 11 -3
11 4 13 8 6 11 -7 2 -10 8 -6 13 7 11 3 11 -16 -1z"/>
<path d="M3270 4245 c-7 -9 -8 -15 -2 -15 5 0 12 7 16 15 3 8 4 15 2 15 -2 0
-9 -7 -16 -15z"/>
<path d="M3356 4243 c-6 -14 -5 -15 5 -6 7 7 10 15 7 18 -3 3 -9 -2 -12 -12z"/>
<path d="M2407 4231 c-4 -17 -3 -21 5 -13 5 5 8 16 6 23 -3 8 -7 3 -11 -10z"/>
<path d="M3400 4230 c6 -11 16 -20 23 -19 9 0 9 2 0 6 -7 2 -13 11 -13 19 0 8
-5 14 -10 14 -7 0 -7 -6 0 -20z"/>
<path d="M3446 4232 c-2 -4 4 -8 14 -8 10 0 16 4 14 8 -3 4 -9 8 -14 8 -5 0
-11 -4 -14 -8z"/>
<path d="M2009 4228 c-1 -2 -3 -13 -4 -25 -2 -15 2 -20 12 -16 11 4 12 8 3 13
-7 4 -9 13 -6 19 4 6 5 11 2 11 -3 0 -7 -1 -7 -2z"/>
<path d="M2328 4197 c3 -17 20 -45 38 -64 l33 -33 -3 35 c-2 30 0 34 16 29 21
-6 24 6 6 24 -17 17 -28 15 -28 -4 0 -8 -4 -13 -10 -9 -5 3 -7 13 -4 23 5 16
5 16 -6 0 -16 -25 -31 -22 -26 5 2 14 -1 24 -8 24 -8 0 -10 -11 -8 -30z m62
-58 c0 -8 -7 -6 -20 6 -11 10 -17 22 -14 26 6 11 34 -15 34 -32z"/>
<path d="M3366 4221 c-7 -11 22 -36 31 -27 3 3 1 6 -6 6 -7 0 -10 4 -6 9 3 5
1 12 -4 15 -5 4 -12 2 -15 -3z"/>
<path d="M1840 4210 c0 -5 5 -10 11 -10 5 0 7 5 4 10 -3 6 -8 10 -11 10 -2 0
-4 -4 -4 -10z"/>
<path d="M2203 4214 c4 -4 2 -13 -4 -21 -15 -17 -1 -17 16 1 12 12 12 15 -2
21 -10 3 -14 3 -10 -1z"/>
<path d="M2157 4192 c-14 -15 -14 -19 -3 -19 8 0 17 9 19 19 3 10 4 18 3 18
-2 0 -10 -8 -19 -18z"/>
<path d="M2505 4200 c3 -5 8 -10 11 -10 2 0 4 5 4 10 0 6 -5 10 -11 10 -5 0
-7 -4 -4 -10z"/>
<path d="M2543 4195 c0 -21 26 -27 43 -10 9 8 12 15 7 15 -5 0 -14 -5 -21 -12
-9 -9 -12 -8 -12 5 0 9 -4 17 -8 17 -5 0 -9 -7 -9 -15z"/>
<path d="M3437 4204 c-3 -3 -2 -16 3 -29 5 -13 6 -26 2 -30 -3 -3 2 -3 12 1
12 4 14 9 6 14 -6 4 -12 17 -13 28 -1 25 -1 24 -10 16z"/>
<path d="M3476 4198 c3 -5 10 -6 15 -3 13 9 11 12 -6 12 -8 0 -12 -4 -9 -9z"/>
<path d="M2895 4190 c-3 -5 -1 -10 4 -10 6 0 11 5 11 10 0 6 -2 10 -4 10 -3 0
-8 -4 -11 -10z"/>
<path d="M3206 4191 c-3 -5 2 -15 12 -22 15 -12 16 -12 5 2 -7 9 -10 19 -6 22
3 4 4 7 0 7 -3 0 -8 -4 -11 -9z"/>
<path d="M3240 4190 c0 -5 5 -10 11 -10 5 0 7 5 4 10 -3 6 -8 10 -11 10 -2 0
-4 -4 -4 -10z"/>
<path d="M3410 4191 c0 -6 4 -13 10 -16 6 -3 7 1 4 9 -7 18 -14 21 -14 7z"/>
<path d="M1840 4179 c0 -5 5 -7 10 -4 6 3 10 8 10 11 0 2 -4 4 -10 4 -5 0 -10
-5 -10 -11z"/>
<path d="M2616 4175 c4 -8 11 -15 16 -15 6 0 5 6 -2 15 -7 8 -14 15 -16 15 -2
0 -1 -7 2 -15z"/>
<path d="M2726 4183 c-13 -13 -5 -24 12 -19 13 4 18 1 18 -14 0 -22 -6 -25
-24 -10 -7 5 -6 3 2 -6 15 -17 41 -10 30 8 -4 6 -1 13 5 17 8 5 3 11 -13 19
-13 6 -27 8 -30 5z"/>
<path d="M2925 4179 c-4 -6 -5 -12 -2 -15 2 -3 7 2 10 11 7 17 1 20 -8 4z"/>
<path d="M3495 4176 c-18 -13 -18 -14 3 -25 26 -14 32 -14 32 -1 0 6 -3 9 -7
9 -29 -5 -35 3 -13 16 14 8 20 14 14 15 -5 0 -19 -6 -29 -14z"/>
<path d="M2055 4170 c-3 -5 -1 -10 4 -10 6 0 11 5 11 10 0 6 -2 10 -4 10 -3 0
-8 -4 -11 -10z"/>
<path d="M2510 4165 c6 -8 9 -19 5 -24 -3 -7 0 -8 9 -5 12 5 13 9 3 25 -6 10
-16 19 -21 19 -4 0 -3 -7 4 -15z"/>
<path d="M3987 4160 c-3 -11 -1 -20 4 -20 5 0 9 9 9 20 0 11 -2 20 -4 20 -2 0
-6 -9 -9 -20z"/>
<path d="M1210 4156 c0 -8 5 -18 10 -21 6 -3 10 1 10 9 0 8 -4 18 -10 21 -5 3
-10 -1 -10 -9z"/>
<path d="M1990 4156 c0 -9 5 -16 10 -16 6 0 10 4 10 9 0 6 -4 13 -10 16 -5 3
-10 -1 -10 -9z"/>
<path d="M2440 4163 c0 -4 5 -15 10 -23 8 -13 10 -13 10 2 0 9 -4 20 -10 23
-5 3 -10 3 -10 -2z"/>
<path d="M2654 4158 c-4 -7 -4 -10 1 -6 4 4 14 3 22 -4 11 -8 17 -8 26 2 9 10
9 11 -1 6 -7 -4 -19 -3 -27 4 -10 8 -15 8 -21 -2z"/>
<path d="M3031 4151 c-15 -11 -18 -18 -8 -18 8 0 19 9 26 19 14 22 12 22 -18
-1z"/>
<path d="M3404 4150 c0 -10 6 -16 13 -13 7 3 13 9 13 13 0 4 -6 10 -13 13 -7
3 -13 -3 -13 -13z"/>
<path d="M3925 4163 c-28 -7 -44 -24 -17 -18 12 2 27 7 34 11 7 4 8 3 4 -5 -4
-6 -2 -18 4 -26 8 -9 8 -15 2 -15 -6 0 -12 5 -14 12 -6 17 -28 0 -27 -20 1
-15 2 -15 6 1 4 14 8 15 18 7 8 -6 11 -18 8 -26 -3 -8 0 -14 6 -14 6 0 11 8
11 18 0 10 6 24 13 31 10 11 9 12 -1 6 -10 -5 -13 -1 -10 15 3 25 -6 30 -37
23z"/>
<path d="M2135 4150 c3 -5 8 -10 11 -10 2 0 4 5 4 10 0 6 -5 10 -11 10 -5 0
-7 -4 -4 -10z"/>
<path d="M2476 4148 c3 -4 9 -8 15 -8 5 0 9 4 9 8 0 5 -7 9 -15 9 -8 0 -12 -4
-9 -9z"/>
<path d="M2589 4151 c12 -8 12 -12 2 -25 -8 -9 -9 -16 -3 -16 5 0 13 7 16 16
5 12 8 13 20 2 11 -10 11 -16 2 -27 -8 -11 -8 -13 1 -8 7 5 12 1 12 -10 1 -39
5 -53 13 -53 12 0 10 24 -3 37 -8 8 -6 13 9 17 20 7 20 7 -4 31 -25 25 -57 45
-71 45 -4 0 -2 -4 6 -9z"/>
<path d="M3180 4150 c0 -5 5 -10 11 -10 5 0 7 5 4 10 -3 6 -8 10 -11 10 -2 0
-4 -4 -4 -10z"/>
<path d="M2035 4140 c12 -19 43 -31 51 -18 4 6 3 8 -3 5 -6 -4 -16 0 -23 8
-14 17 -35 21 -25 5z"/>
<path d="M2963 4132 c11 -11 16 -25 13 -31 -4 -6 2 -8 15 -6 13 3 28 0 35 -6
10 -8 13 -6 11 9 -1 17 -5 18 -24 11 -20 -7 -23 -6 -21 8 2 10 -1 18 -7 18 -5
0 -17 4 -25 9 -10 6 -8 2 3 -12z"/>
<path d="M3199 4123 l-24 -28 30 25 c17 14 32 26 34 28 2 1 0 2 -6 2 -5 0 -20
-12 -34 -27z"/>
<path d="M1294 4128 c-4 -7 -4 -10 1 -6 4 4 15 2 24 -5 14 -11 14 -10 2 6 -16
20 -18 21 -27 5z"/>
<path d="M2897 4125 c-4 -8 -2 -17 3 -20 6 -4 10 1 10 10 0 9 5 13 10 10 6 -3
10 -1 10 4 0 16 -27 13 -33 -4z"/>
<path d="M3455 4130 c-16 -7 -17 -9 -3 -9 9 -1 20 4 23 9 7 11 7 11 -20 0z"/>
<path d="M3545 4130 c-3 -6 1 -7 9 -4 18 7 21 14 7 14 -6 0 -13 -4 -16 -10z"/>
<path d="M3688 4113 c2 -12 8 -23 13 -23 5 0 5 7 2 17 -4 11 -3 14 5 9 7 -4
10 -2 6 7 -9 24 -31 16 -26 -10z"/>
<path d="M3727 4129 c6 -6 9 -19 6 -28 -4 -9 -3 -13 2 -9 4 4 14 0 22 -10 10
-12 9 -8 -2 16 -15 32 -15 32 11 32 24 0 25 -2 13 -17 -13 -16 -12 -17 3 -4
25 19 13 31 -30 31 -26 0 -33 -3 -25 -11z"/>
<path d="M1351 4114 c0 -11 3 -14 6 -6 3 7 2 16 -1 19 -3 4 -6 -2 -5 -13z"/>
<path d="M1371 4114 c0 -11 3 -14 6 -6 3 7 2 16 -1 19 -3 4 -6 -2 -5 -13z"/>
<path d="M2145 4120 c-3 -5 -12 -7 -20 -3 -20 7 -19 1 4 -19 18 -15 19 -15 24
8 4 25 2 30 -8 14z"/>
<path d="M2414 4118 c-4 -7 -3 -10 1 -5 5 4 17 -1 28 -10 19 -17 20 -17 8 5
-13 25 -26 28 -37 10z"/>
<path d="M3510 4121 c0 -6 5 -11 11 -11 6 0 9 -6 6 -14 -6 -15 31 -51 41 -40
4 4 1 9 -5 11 -20 7 -15 23 6 23 24 0 36 16 20 26 -8 4 -9 3 -5 -4 11 -18 -26
-15 -52 4 -12 8 -22 10 -22 5z"/>
<path d="M3830 4120 c0 -5 5 -10 11 -10 5 0 7 5 4 10 -3 6 -8 10 -11 10 -2 0
-4 -4 -4 -10z"/>
<path d="M3875 4120 c-3 -6 1 -7 9 -4 18 7 21 14 7 14 -6 0 -13 -4 -16 -10z"/>
<path d="M1215 4110 c3 -5 8 -10 11 -10 2 0 4 5 4 10 0 6 -5 10 -11 10 -5 0
-7 -4 -4 -10z"/>
<path d="M1667 4083 c3 -21 5 -43 6 -50 0 -6 6 -9 14 -6 7 3 11 9 8 13 -3 5 3
13 12 19 10 6 12 11 6 11 -7 0 -13 5 -13 11 0 6 8 8 18 5 9 -3 23 -2 31 3 9 6
2 8 -20 7 -24 -1 -34 -6 -34 -18 0 -9 -4 -20 -8 -24 -4 -4 -7 9 -7 29 0 21 -4
37 -9 37 -5 0 -7 -17 -4 -37z"/>
<path d="M2688 4111 c8 -4 13 -11 13 -15 -3 -23 0 -30 9 -16 10 16 -4 40 -24
40 -7 0 -6 -4 2 -9z"/>
<path d="M3057 4109 c7 -7 15 -10 18 -7 3 3 -2 9 -12 12 -14 6 -15 5 -6 -5z"/>
<path d="M3645 4100 c-17 -19 -17 -20 -2 -14 11 4 25 0 37 -11 15 -13 22 -14
37 -5 14 9 14 10 2 7 -20 -6 -62 20 -54 34 11 16 -1 10 -20 -11z"/>
<path d="M1590 4091 c5 -11 15 -23 20 -26 6 -4 8 -10 5 -15 -3 -5 0 -12 6 -16
8 -4 9 -3 5 4 -4 7 -2 12 3 12 6 0 11 5 11 11 0 5 -4 8 -8 5 -5 -3 -15 6 -22
19 -7 14 -17 25 -22 25 -5 0 -4 -9 2 -19z"/>
<path d="M2481 4092 c-6 -11 -19 -19 -28 -18 -10 2 -13 1 -7 -1 6 -2 17 -14
23 -26 6 -12 10 -15 7 -6 -2 8 2 25 8 37 12 23 12 23 30 3 17 -19 17 -20 -3
-31 -11 -6 -20 -14 -18 -18 1 -4 -1 -8 -5 -9 -18 -6 -28 -2 -28 11 0 8 -4 18
-10 21 -5 3 -10 0 -10 -8 0 -8 16 -27 37 -43 34 -26 36 -26 31 -6 -7 24 2 28
20 10 9 -9 11 -3 9 25 -2 22 -12 47 -24 59 l-21 20 -11 -20z m46 -56 c0 -8 -6
-12 -15 -9 -11 5 -11 7 0 14 7 5 13 9 14 9 0 0 1 -6 1 -14z"/>
<path d="M2553 4094 c0 -7 4 -11 9 -8 5 3 15 0 23 -6 8 -7 15 -8 15 -3 0 5
-10 15 -23 20 -19 9 -24 8 -24 -3z"/>
<path d="M3430 4096 c-6 -6 -16 -11 -22 -11 -6 0 -13 -7 -15 -15 -3 -9 -1 -11
4 -5 4 6 15 11 23 13 8 2 16 7 18 12 2 5 10 6 18 3 8 -3 14 -1 14 4 0 13 -27
12 -40 -1z"/>
<path d="M3976 4102 c-3 -5 1 -9 9 -9 8 0 12 4 9 9 -3 4 -7 8 -9 8 -2 0 -6 -4
-9 -8z"/>
<path d="M1476 4088 c3 -4 9 -8 15 -8 5 0 9 4 9 8 0 5 -7 9 -15 9 -8 0 -12 -4
-9 -9z"/>
<path d="M2921 4084 c0 -11 3 -14 6 -6 3 7 2 16 -1 19 -3 4 -6 -2 -5 -13z"/>
<path d="M3110 4090 c8 -5 20 -10 25 -10 6 0 3 5 -5 10 -8 5 -19 10 -25 10 -5
0 -3 -5 5 -10z"/>
<path d="M1388 4073 c5 -10 8 -31 6 -48 -1 -16 0 -24 3 -17 4 10 8 10 21 0 14
-11 14 -9 0 8 -22 25 -24 41 -4 25 12 -10 13 -8 9 8 -3 12 -9 18 -14 15 -5 -3
-9 2 -9 10 0 9 -5 16 -10 16 -7 0 -7 -7 -2 -17z"/>
<path d="M1431 4074 c0 -11 3 -14 6 -6 3 7 2 16 -1 19 -3 4 -6 -2 -5 -13z"/>
<path d="M1506 4074 c-3 -9 3 -27 14 -41 11 -14 20 -21 20 -16 0 6 -7 16 -15
23 -9 7 -13 21 -10 31 8 23 0 25 -9 3z"/>
<path d="M2390 4078 c0 -9 5 -20 11 -23 17 -11 18 -2 3 19 -12 17 -14 17 -14
4z"/>
<path d="M3067 4083 c-10 -9 -9 -33 1 -33 4 0 8 9 8 20 0 23 0 22 -9 13z"/>
<path d="M3845 4080 c3 -5 8 -10 11 -10 2 0 4 5 4 10 0 6 -5 10 -11 10 -5 0
-7 -4 -4 -10z"/>
<path d="M2075 4070 c3 -5 8 -10 11 -10 2 0 4 5 4 10 0 6 -5 10 -11 10 -5 0
-7 -4 -4 -10z"/>
<path d="M2966 4062 c24 -20 21 -44 -4 -35 -13 4 -14 3 -3 -5 11 -8 11 -11 0
-16 -8 -3 -3 -3 11 1 22 5 23 4 11 -11 -11 -14 -11 -16 1 -16 10 0 14 11 13
34 -2 32 -23 66 -42 66 -4 -1 1 -8 13 -18z"/>
<path d="M3802 4066 c7 -8 15 -12 17 -11 5 6 -10 25 -20 25 -5 0 -4 -6 3 -14z"/>
<path d="M2127 4057 c-3 -8 1 -14 9 -14 8 0 14 4 14 9 0 5 5 6 10 3 6 -3 10
-1 10 4 0 16 -37 13 -43 -2z"/>
<path d="M2569 4061 c11 -7 11 -9 0 -13 -10 -3 -10 -6 -1 -12 7 -4 12 -2 12 4
0 6 5 8 13 4 8 -5 8 -2 -2 9 -7 9 -19 17 -25 17 -6 0 -5 -4 3 -9z"/>
<path d="M3102 4049 c-8 -12 -9 -18 -2 -14 6 4 19 1 28 -7 15 -11 15 -11 6 2
-6 8 -13 21 -15 28 -3 8 -9 5 -17 -9z"/>
<path d="M3622 4062 c-9 -6 -6 -12 13 -20 24 -11 25 -11 15 8 -12 23 -11 22
-28 12z"/>
<path d="M3834 4058 c8 -25 -12 -33 -34 -13 -15 14 -23 15 -33 6 -8 -6 -17 -9
-20 -6 -4 3 -5 2 -2 -2 8 -11 36 -13 29 -2 -12 20 13 7 51 -26 39 -34 63 -40
57 -15 -2 7 3 10 12 7 9 -4 18 -1 22 5 4 6 3 8 -3 5 -10 -6 -56 23 -76 48 -5
6 -7 3 -3 -7z m33 -30 c11 -19 12 -38 2 -38 -5 0 -9 10 -10 23 0 12 -3 16 -6
9 -2 -6 -9 -10 -14 -6 -11 6 -2 24 11 24 5 0 12 -6 17 -12z"/>
<path d="M3877 4064 c-9 -10 2 -24 18 -24 9 0 12 6 9 15 -6 16 -17 19 -27 9z"/>
<path d="M1463 4045 c0 -8 4 -15 9 -15 4 0 8 7 8 15 0 8 -4 15 -8 15 -5 0 -9
-7 -9 -15z"/>
<path d="M3420 4042 c6 -13 14 -21 18 -18 3 4 -2 14 -12 24 -18 16 -18 16 -6
-6z"/>
<path d="M1651 4034 c0 -11 3 -14 6 -6 3 7 2 16 -1 19 -3 4 -6 -2 -5 -13z"/>
<path d="M3019 4048 c-7 -23 -3 -45 8 -41 17 6 17 23 1 23 -9 0 -8 4 2 10 10
6 11 10 3 10 -7 0 -13 -1 -14 -2z"/>
<path d="M3520 4040 c-9 -6 -10 -10 -3 -10 6 0 15 5 18 10 8 12 4 12 -15 0z"/>
<path d="M3589 4037 c8 -10 23 -23 33 -28 18 -10 18 -8 8 11 -6 12 -14 19 -17
16 -4 -3 -13 0 -22 7 -14 11 -14 10 -2 -6z"/>
<path d="M3060 4036 c0 -2 7 -9 15 -16 13 -11 14 -10 9 4 -5 14 -24 23 -24 12z"/>
<path d="M3545 4031 c-6 -11 13 -26 22 -17 4 3 0 6 -8 6 -11 0 -11 2 1 10 9 6
10 10 3 10 -6 0 -14 -4 -18 -9z"/>
<path d="M2370 4022 c0 -5 7 -9 15 -9 8 0 12 4 9 9 -3 4 -9 8 -15 8 -5 0 -9
-4 -9 -8z"/>
<path d="M2621 4011 c8 -11 16 -17 19 -12 3 4 12 11 20 14 10 5 9 6 -5 4 -11
-1 -26 2 -33 7 -11 7 -11 4 -1 -13z"/>
<path d="M3461 4014 c0 -11 3 -14 6 -6 3 7 2 16 -1 19 -3 4 -6 -2 -5 -13z"/>
<path d="M3490 4026 c0 -2 7 -9 15 -16 9 -7 15 -8 15 -2 0 5 -7 12 -15 16 -8
3 -15 4 -15 2z"/>
<path d="M3660 4020 c-9 -6 -10 -10 -3 -10 6 0 15 5 18 10 8 12 4 12 -15 0z"/>
<path d="M1449 4017 c-3 -14 -7 -27 -9 -29 -8 -11 -6 -37 3 -35 7 1 11 -3 10
-10 -3 -16 34 -37 42 -24 3 5 -3 16 -12 23 -10 7 -20 27 -21 43 -4 29 -11 46
-13 32z m36 -87 c3 -6 -1 -7 -9 -4 -18 7 -21 14 -7 14 6 0 13 -4 16 -10z"/>
<path d="M1485 4010 c-3 -5 -1 -10 4 -10 6 0 11 5 11 10 0 6 -2 10 -4 10 -3 0
-8 -4 -11 -10z"/>
<path d="M1714 4012 c3 -6 -6 -15 -21 -20 -16 -6 -21 -11 -12 -11 8 -1 23 5
34 12 14 11 15 16 5 22 -8 5 -11 4 -6 -3z"/>
<path d="M3105 4010 c-3 -5 -1 -10 4 -10 6 0 11 5 11 10 0 6 -2 10 -4 10 -3 0
-8 -4 -11 -10z"/>
<path d="M3773 4005 c0 -7 3 -14 6 -13 18 2 24 -3 14 -10 -9 -5 -6 -12 10 -21
16 -10 19 -10 10 -1 -9 10 -9 19 -2 33 8 14 8 18 0 12 -7 -4 -18 -2 -25 4 -9
8 -13 7 -13 -4z"/>
<path d="M3482 4000 c3 -8 1 -23 -4 -32 -6 -13 -5 -18 6 -18 10 0 13 6 9 17
-4 11 -3 14 5 9 18 -11 15 3 -5 22 -13 13 -15 13 -11 2z"/>
<path d="M3696 3995 c-4 -11 -13 -14 -28 -10 -21 5 -21 5 -4 -6 14 -9 21 -8
34 5 9 8 13 18 10 21 -3 3 -8 -1 -12 -10z"/>
<path d="M1546 3988 c5 -8 2 -9 -10 -5 -9 4 -15 3 -11 -2 3 -6 14 -9 25 -8 14
1 16 4 8 14 -13 16 -22 17 -12 1z"/>
<path d="M1614 3981 c0 -19 32 -26 42 -9 4 7 2 8 -4 4 -7 -4 -12 -3 -12 2 0 6
-6 12 -13 15 -7 3 -13 -3 -13 -12z"/>
<path d="M3056 3992 c-2 -4 4 -8 14 -8 10 0 16 4 14 8 -3 4 -9 8 -14 8 -5 0
-11 -4 -14 -8z"/>
<path d="M1583 3970 c-1 -11 2 -22 8 -25 5 -4 8 3 6 14 -4 28 -12 34 -14 11z"/>
<path d="M2445 3973 c4 -10 8 -23 8 -30 0 -7 3 -10 7 -8 11 7 -1 55 -12 55 -6
0 -7 -8 -3 -17z"/>
<path d="M2531 3981 c-7 -5 -9 -11 -5 -14 5 -3 15 1 22 9 14 16 5 18 -17 5z"/>
<path d="M3585 3980 c-3 -6 1 -7 9 -4 18 7 21 14 7 14 -6 0 -13 -4 -16 -10z"/>
<path d="M3825 3981 c-3 -5 -1 -12 5 -16 5 -3 10 1 10 9 0 18 -6 21 -15 7z"/>
<path d="M3706 3965 c-5 -15 11 -31 21 -21 4 3 0 6 -8 6 -12 0 -12 2 0 9 8 5
9 11 3 15 -5 3 -12 -1 -16 -9z"/>
<path d="M3756 3972 c2 -2 -1 -12 -6 -21 -5 -11 -5 -23 2 -32 8 -12 9 -11 5 2
-3 9 0 22 6 28 8 8 8 14 1 20 -6 5 -9 6 -8 3z"/>
<path d="M1494 3958 c-4 -7 -3 -8 4 -4 7 4 12 2 12 -4 0 -6 4 -9 9 -6 5 4 12
0 14 -6 4 -10 6 -10 6 -1 1 18 -36 36 -45 21z"/>
<path d="M2564 3956 c1 -8 5 -18 8 -22 4 -3 5 1 4 10 -1 8 -5 18 -8 22 -4 3
-5 -1 -4 -10z"/>
<path d="M3873 3949 c-2 -26 18 -35 33 -15 7 10 17 15 23 11 6 -3 11 -2 11 4
0 15 -18 23 -25 11 -4 -6 -13 -7 -24 -1 -13 7 -17 5 -18 -10z m27 -3 c0 -3 -4
-8 -10 -11 -5 -3 -10 -1 -10 4 0 6 5 11 10 11 6 0 10 -2 10 -4z"/>
<path d="M2507 3937 c-3 -8 1 -14 8 -14 7 0 11 6 8 14 -3 7 -6 13 -8 13 -2 0
-5 -6 -8 -13z"/>
<path d="M3791 3942 c-1 -7 -5 -10 -11 -7 -6 3 -7 -1 -4 -10 4 -11 10 -13 16
-7 6 6 8 16 5 24 -4 10 -6 10 -6 0z"/>
<path d="M3836 3938 c3 -4 9 -8 15 -8 5 0 9 4 9 8 0 5 -7 9 -15 9 -8 0 -12 -4
-9 -9z"/>
<path d="M1550 3924 c0 -9 -5 -12 -12 -8 -7 4 -8 3 -4 -4 10 -16 14 -15 26 8
7 14 7 20 0 20 -5 0 -10 -7 -10 -16z"/>
<path d="M2470 3921 c0 -10 19 -25 25 -20 1 2 -3 10 -11 17 -8 7 -14 8 -14 3z"/>
<path d="M3810 3926 c0 -2 8 -10 18 -17 15 -13 16 -12 3 4 -13 16 -21 21 -21
13z"/>
<path d="M1570 3913 c0 -6 8 -17 18 -24 16 -13 16 -13 2 6 -8 11 -16 22 -17
24 -2 2 -3 0 -3 -6z"/>
<path d="M2530 3900 c8 -5 20 -10 25 -10 6 0 3 5 -5 10 -8 5 -19 10 -25 10 -5
0 -3 -5 5 -10z"/>
<path d="M3515 3900 c-3 -5 0 -10 9 -10 8 0 17 -6 19 -12 4 -8 6 -9 6 -2 1 18
-26 37 -34 24z"/>
<path d="M1715 3892 c3 -3 -1 -12 -7 -21 -8 -10 -4 -9 10 3 26 23 26 23 7 23
-8 0 -13 -3 -10 -5z"/>
<path d="M3586 3878 c5 -7 2 -9 -9 -5 -11 4 -14 2 -10 -9 3 -7 10 -14 15 -14
6 0 5 -7 -3 -16 -10 -13 -10 -17 2 -25 8 -5 18 -9 22 -9 5 0 6 -4 3 -9 -3 -5
2 -15 12 -22 15 -13 16 -12 3 4 -11 14 -11 17 0 18 8 0 4 5 -8 11 -25 12 -30
33 -10 41 10 4 10 6 0 6 -7 1 -13 6 -13 12 0 5 6 7 13 3 8 -5 8 -2 -2 9 -15
19 -26 23 -15 5z"/>
<path d="M1567 3866 c-3 -8 1 -22 8 -33 8 -10 15 -13 15 -8 0 6 4 4 9 -3 7
-11 9 -11 14 1 4 11 0 15 -14 12 -18 -4 -23 5 -20 33 2 16 -6 15 -12 -2z"/>
<path d="M1625 3860 c3 -5 8 -10 11 -10 2 0 4 5 4 10 0 6 -5 10 -11 10 -5 0
-7 -4 -4 -10z"/>
<path d="M3630 3858 c0 -4 4 -8 9 -8 6 0 12 4 15 8 3 5 -1 9 -9 9 -8 0 -15 -4
-15 -9z"/>
<path d="M1311 3803 c-1 -6 4 -15 10 -19 6 -3 17 -20 25 -38 7 -17 13 -24 14
-16 0 9 -7 25 -15 36 -8 12 -11 25 -7 29 4 5 2 5 -5 2 -6 -4 -14 -1 -16 5 -4
9 -6 10 -6 1z"/>
<path d="M1350 3791 c0 -10 19 -25 25 -20 1 2 -3 10 -11 17 -8 7 -14 8 -14 3z"/>
<path d="M3794 3781 c0 -11 4 -17 8 -15 4 3 8 12 8 20 0 8 -4 14 -8 14 -4 0
-8 -9 -8 -19z"/>
<path d="M3830 3796 c0 -2 8 -10 18 -17 15 -13 16 -12 3 4 -13 16 -21 21 -21
13z"/>
<path d="M3580 3784 c0 -13 18 -39 24 -34 2 3 -2 14 -10 24 -8 11 -14 16 -14
10z"/>
<path d="M1240 3765 c-7 -8 -20 -15 -28 -15 -13 0 -14 -2 -3 -12 11 -10 14
-10 18 0 3 6 14 12 26 13 12 0 16 3 9 6 -6 2 -10 9 -6 14 9 15 -2 10 -16 -6z"/>
<path d="M1290 3770 c0 -5 7 -10 16 -10 9 0 14 -6 11 -12 -2 -7 -9 -12 -14
-11 -5 1 -10 -5 -10 -13 0 -7 5 -14 11 -14 6 0 4 -5 -4 -11 -12 -9 -11 -9 5
-4 11 4 26 8 32 8 8 0 9 4 4 11 -9 11 -11 17 -11 36 0 5 -9 14 -20 20 -14 7
-20 7 -20 0z m37 -45 c0 -8 -4 -15 -9 -15 -10 0 -11 14 -1 23 9 10 10 9 10 -8z"/>
<path d="M3896 3753 c-6 -14 -5 -15 5 -6 7 7 10 15 7 18 -3 3 -9 -2 -12 -12z"/>
<path d="M3970 3756 c0 -8 4 -17 9 -20 5 -4 7 3 4 14 -6 23 -13 26 -13 6z"/>
<path d="M3997 3759 c7 -7 15 -10 18 -7 3 3 -2 9 -12 12 -14 6 -15 5 -6 -5z"/>
<path d="M3826 3754 c7 -3 11 -13 9 -22 -1 -9 0 -11 2 -4 3 7 10 9 16 5 7 -4
6 1 -2 10 -7 9 -19 17 -25 16 -8 0 -8 -2 0 -5z"/>
<path d="M4060 3740 c0 -5 5 -10 10 -10 6 0 10 5 10 10 0 6 -4 10 -10 10 -5 0
-10 -4 -10 -10z"/>
<path d="M3807 3720 c4 -16 2 -19 -12 -13 -14 5 -16 3 -9 -8 4 -8 8 -23 7 -34
-2 -18 -1 -18 4 -1 4 15 7 16 14 5 7 -11 9 -10 9 4 0 10 5 15 10 12 6 -3 10
-1 10 4 0 6 -4 11 -10 11 -5 0 -10 9 -10 20 0 11 -4 20 -9 20 -5 0 -7 -9 -4
-20z"/>
<path d="M3992 3720 c-19 -30 -14 -35 9 -9 18 21 20 22 14 4 -5 -15 -3 -17 6
-8 11 11 5 33 -9 33 -4 0 -13 -9 -20 -20z"/>
<path d="M1207 3700 c-17 -20 -16 -20 8 -14 20 5 24 3 19 -10 -4 -9 -1 -16 6
-16 7 0 10 -7 5 -17 -5 -14 -4 -15 6 -6 9 9 9 16 1 26 -9 10 -8 19 4 35 9 13
11 22 5 22 -6 0 -11 -4 -11 -10 0 -5 -7 -10 -16 -10 -8 0 -12 5 -9 10 10 17 0
11 -18 -10z"/>
<path d="M3855 3709 c-4 -6 -4 -13 -1 -16 3 -4 6 0 6 8 0 11 2 11 10 -1 8 -13
10 -12 10 3 0 19 -15 23 -25 6z"/>
<path d="M3896 3711 c-3 -5 0 -14 7 -19 10 -8 13 -6 14 9 2 19 -11 26 -21 10z"/>
<path d="M4043 3685 c0 -8 4 -15 9 -15 4 0 8 4 8 9 0 6 -4 12 -8 15 -5 3 -9
-1 -9 -9z"/>
<path d="M3930 3675 c-7 -9 -10 -18 -7 -21 3 -3 10 4 17 15 13 25 8 27 -10 6z"/>
<path d="M1268 3673 c7 -3 16 -2 19 1 4 3 -2 6 -13 5 -11 0 -14 -3 -6 -6z"/>
<path d="M1390 3671 c0 -6 4 -13 10 -16 6 -3 7 1 4 9 -7 18 -14 21 -14 7z"/>
<path d="M1339 3658 c-1 -7 -1 -17 1 -23 1 -5 -7 -2 -18 8 -21 19 -32 22 -32
6 0 -5 5 -7 10 -4 6 3 10 -1 10 -9 0 -11 8 -13 28 -10 36 7 51 22 32 34 -20
13 -30 12 -31 -2z m26 -8 c3 -5 1 -10 -4 -10 -6 0 -11 5 -11 10 0 6 2 10 4 10
3 0 8 -4 11 -10z"/>
<path d="M3840 3663 c0 -5 5 -15 10 -23 8 -12 10 -11 10 8 0 12 -4 22 -10 22
-5 0 -10 -3 -10 -7z"/>
<path d="M3940 3646 c-12 -18 -11 -19 2 -9 11 10 17 10 26 1 7 -7 12 -9 12 -4
0 4 -6 13 -13 21 -11 11 -16 9 -27 -9z"/>
<path d="M3990 3660 c8 -5 20 -10 25 -10 6 0 3 5 -5 10 -8 5 -19 10 -25 10 -5
0 -3 -5 5 -10z"/>
<path d="M3876 3652 c-3 -5 1 -9 9 -9 8 0 15 4 15 9 0 4 -4 8 -9 8 -6 0 -12
-4 -15 -8z"/>
<path d="M1103 3625 c0 -8 4 -12 9 -9 5 3 6 10 3 15 -9 13 -12 11 -12 -6z"/>
<path d="M3800 3630 c0 -5 5 -10 11 -10 5 0 7 5 4 10 -3 6 -8 10 -11 10 -2 0
-4 -4 -4 -10z"/>
<path d="M1340 3610 c-9 -6 -10 -10 -3 -10 6 0 14 -10 16 -22 3 -17 5 -14 6
10 1 36 2 35 -19 22z"/>
<path d="M1163 3580 c-1 -11 2 -20 7 -20 4 0 7 7 6 15 -3 23 -12 26 -13 5z"/>
<path d="M3833 3586 c3 -7 0 -19 -6 -25 -6 -6 -7 -11 -3 -11 10 0 35 31 36 43
0 4 -7 7 -16 7 -10 0 -14 -6 -11 -14z"/>
<path d="M1351 3534 c0 -11 3 -14 6 -6 3 7 2 16 -1 19 -3 4 -6 -2 -5 -13z"/>
<path d="M1326 3506 c3 -8 12 -12 21 -9 12 5 12 7 1 14 -20 13 -28 11 -22 -5z"/>
<path d="M1310 3483 c0 -15 19 -37 26 -31 3 4 -1 14 -10 23 -9 9 -16 13 -16 8z"/>
<path d="M1935 3706 c-75 -29 -113 -56 -134 -93 l-11 -22 122 4 c68 2 139 0
158 -5 19 -5 55 -14 79 -21 39 -11 45 -10 57 6 8 10 14 28 14 40 0 27 -53 76
-101 93 -43 15 -143 14 -184 -2z"/>
<path d="M3101 3704 c-57 -18 -101 -59 -101 -95 0 -44 23 -55 83 -40 108 25
165 31 245 25 96 -7 102 0 43 55 -70 65 -173 86 -270 55z"/>
<path d="M2558 3561 c-28 -25 -33 -36 -33 -75 0 -62 35 -99 93 -98 78 1 125
61 98 125 -18 43 -45 65 -88 72 -31 5 -42 1 -70 -24z"/>
<path d="M1872 3461 c-55 -14 -122 -42 -122 -51 0 -5 -10 -12 -22 -16 -33 -10
-130 -114 -156 -168 -56 -111 -67 -238 -28 -321 22 -48 51 -83 61 -73 3 2 1
19 -5 36 -5 18 -7 43 -4 55 2 12 7 54 10 92 3 42 13 88 26 115 21 43 24 51 27
68 0 4 12 19 25 34 14 14 22 29 19 32 -4 3 0 6 7 6 7 0 29 12 49 27 20 16 38
28 41 29 3 0 23 9 45 19 22 10 48 18 58 17 10 0 15 4 11 10 -5 7 -2 8 5 3 7
-4 48 -8 91 -9 43 0 77 -3 75 -6 -2 -3 18 -16 44 -29 66 -31 112 -71 179 -155
l57 -71 3 32 c5 47 -52 158 -108 214 -26 25 -78 61 -116 80 -60 30 -79 34
-154 36 -47 1 -100 -2 -118 -6z"/>
<path d="M3110 3449 c-108 -38 -198 -127 -240 -237 -21 -55 -26 -102 -11 -102
9 0 42 45 41 55 0 3 6 13 15 21 8 9 12 20 9 26 -4 6 -2 8 3 5 6 -4 26 10 45
31 84 91 154 121 268 115 137 -6 148 -8 147 -17 -1 -4 15 -17 35 -28 33 -17
67 -50 120 -116 20 -25 51 -82 44 -82 -3 0 1 -12 9 -26 7 -15 11 -33 8 -40 -3
-8 -1 -14 5 -14 5 0 10 -42 11 -97 1 -54 4 -99 6 -101 5 -6 29 19 42 43 13 25
26 90 26 130 0 121 -48 230 -140 320 -37 36 -70 65 -76 65 -5 0 -21 9 -37 20
-69 49 -232 64 -330 29z"/>
<path d="M1910 3303 c-144 -53 -217 -144 -227 -284 -7 -93 16 -159 80 -226 65
-69 132 -96 219 -90 76 5 94 9 148 37 58 30 84 58 121 131 28 55 32 72 31 139
0 63 -5 85 -27 126 -49 88 -103 134 -190 161 -40 13 -127 16 -155 6z m142 -71
c64 -26 88 -129 46 -192 -37 -54 -72 -74 -126 -73 -54 1 -92 20 -123 64 -42
59 -17 161 47 195 18 10 31 21 29 24 -6 9 96 -5 127 -18z"/>
<path d="M3165 3299 c-94 -34 -163 -87 -197 -153 -18 -33 -22 -59 -22 -131 -1
-77 3 -98 26 -145 14 -30 37 -67 50 -81 31 -35 88 -69 115 -69 12 0 25 -4 28
-10 10 -16 116 -12 168 6 26 9 45 20 41 25 -3 5 1 6 9 3 8 -3 36 16 67 45 39
37 51 54 46 67 -4 10 -4 15 1 11 12 -13 42 75 42 128 2 162 -125 300 -287 311
-31 2 -70 -1 -87 -7z m142 -70 c118 -57 98 -222 -32 -258 -57 -15 -103 -3
-147 41 -33 33 -38 44 -38 83 0 124 104 189 217 134z"/>
<path d="M2332 2718 c-20 -20 -14 -47 19 -88 86 -106 243 -147 379 -97 30 11
58 24 61 29 3 5 9 9 13 8 11 -2 71 52 91 83 14 23 16 32 7 52 -15 34 -44 31
-72 -5 -27 -35 -91 -74 -140 -86 -100 -23 -242 19 -292 86 -23 32 -46 38 -66
18z"/>
<path d="M3330 2573 c-67 -25 -81 -36 -78 -62 3 -30 32 -46 97 -56 52 -8 133
10 154 33 21 24 5 60 -30 68 -15 4 -32 10 -38 14 -13 8 -85 11 -105 3z"/>
<path d="M1767 2560 c-91 -29 -69 -93 36 -106 64 -8 149 11 166 38 11 18 10
24 -12 46 -21 20 -36 25 -93 28 -38 2 -82 -1 -97 -6z"/>
<path d="M3860 2246 c-5 -14 -14 -37 -20 -51 -7 -18 -22 -28 -55 -37 -25 -7
-45 -16 -45 -20 0 -4 17 -21 38 -38 21 -17 49 -49 61 -70 12 -22 26 -40 30
-40 10 0 34 29 50 62 8 16 30 34 53 43 22 8 38 20 36 27 -2 6 -24 18 -48 27
-40 15 -45 20 -53 58 -4 23 -14 47 -22 53 -12 10 -17 7 -25 -14z"/>
<path d="M1328 2213 c-9 -33 -20 -49 -38 -56 -83 -32 -86 -40 -32 -65 48 -22
62 -36 62 -60 0 -23 25 -46 39 -38 5 4 24 28 42 54 17 26 40 53 50 60 26 18
24 25 -15 46 -20 10 -41 34 -52 57 -27 55 -40 55 -56 2z"/>
<path d="M1280 1470 c-1 -390 1 -794 3 -794 1 -1 54 0 117 2 l115 3 -1 157
c-1 86 -3 162 -4 167 -6 25 1 215 8 215 4 0 14 -11 22 -24 15 -24 46 -65 90
-120 14 -17 38 -51 54 -75 16 -24 49 -69 73 -100 65 -82 66 -83 93 -121 13
-19 27 -37 30 -40 3 -3 16 -19 28 -36 16 -23 28 -30 49 -29 15 1 34 -3 42 -9
11 -8 13 -8 8 0 -4 7 0 14 8 18 8 3 19 -3 24 -12 9 -14 11 -14 11 -2 1 10 4 9
10 -5 7 -16 9 -16 9 -3 1 12 9 15 31 14 20 -1 31 3 34 13 2 9 3 93 2 186 l-1
170 -60 6 c-81 8 -96 15 -93 49 1 15 7 27 13 27 5 0 39 1 75 1 l65 2 -2 162
c-1 90 -2 204 -3 255 l0 92 -27 0 c-16 0 -68 1 -118 3 l-90 2 -3 -254 c-1
-140 -5 -256 -8 -259 -4 -3 -11 2 -18 12 -6 11 -23 33 -38 50 -15 18 -28 35
-28 39 0 4 -6 13 -13 20 -7 7 -52 65 -100 129 -48 65 -94 122 -102 129 -8 7
-15 16 -15 21 0 5 -18 32 -40 61 l-40 53 -105 0 -105 0 0 -175z"/>
<path d="M2296 1642 c-15 -3 -17 -16 -16 -95 1 -51 4 -104 6 -118 l5 -27 140
3 139 2 0 -367 0 -366 102 3 c57 1 108 5 115 7 7 3 15 1 18 -4 4 -6 9 -10 13
-10 4 0 7 165 7 367 l0 368 35 0 c19 0 38 4 42 10 5 6 8 6 8 0 0 -6 37 -10 90
-10 l90 0 0 118 c0 87 -3 117 -12 117 -90 3 -769 4 -782 2z"/>
<path d="M3219 1642 c-12 -2 -15 -23 -16 -117 l-1 -115 134 0 c132 0 134 0
135 -22 1 -13 2 -140 4 -283 1 -143 3 -297 4 -343 l1 -83 120 2 120 1 0 183 0
183 -68 7 c-82 8 -95 15 -90 46 3 22 8 24 82 29 l78 5 -1 138 -2 138 98 -1
c54 -1 120 -1 146 -1 l48 1 -3 116 -3 116 -385 2 c-212 1 -392 0 -401 -2z"/>
<path d="M820 1215 c0 -38 34 -46 199 -43 l146 3 3 33 3 32 -175 0 -176 0 0
-25z"/>
<path d="M3839 1238 c-7 -17 -6 -57 2 -53 5 4 9 1 9 -6 0 -8 4 -8 15 1 10 9
15 9 15 1 0 -15 53 -14 69 2 10 8 12 8 7 0 -8 -15 363 -16 382 -1 6 6 12 21
12 34 l0 24 -187 0 c-163 0 -189 -2 -207 -17 -16 -14 -18 -14 -8 -2 11 14 5
16 -48 18 -33 1 -61 0 -61 -1z"/>
<path d="M3923 952 c-32 -2 -51 -12 -82 -40 -67 -61 -67 -146 0 -213 35 -35
44 -39 89 -39 97 0 160 57 160 144 0 45 -5 58 -35 93 -39 46 -71 59 -132 55z
m100 -74 c48 -56 33 -142 -29 -172 -54 -25 -88 -21 -128 18 -41 38 -48 84 -21
136 35 68 127 77 178 18z"/>
<path d="M3880 805 c0 -60 3 -75 15 -75 8 0 15 9 15 19 0 34 21 34 48 2 20
-24 31 -29 42 -21 13 8 13 13 2 31 -11 17 -11 27 -1 50 18 44 -9 69 -73 69
l-48 0 0 -75z m78 36 c10 -6 10 -10 -2 -21 -20 -16 -48 -6 -40 15 7 17 22 19
42 6z"/>
<path d="M2660 660 c-9 -6 -10 -10 -3 -10 6 0 15 5 18 10 8 12 4 12 -15 0z"/>
</g>
</svg>
